<?xml version="1.0" encoding="utf-8"?>
<!-- Generator: Adobe Illustrator 25.2.1, SVG Export Plug-In . SVG Version: 6.00 Build 0)  -->
<svg version="1.1" id="Layer_1" xmlns="http://www.w3.org/2000/svg" xmlns:xlink="http://www.w3.org/1999/xlink" x="0px" y="0px"
	 viewBox="0 0 60 60" style="enable-background:new 0 0 60 60;" xml:space="preserve">
<style type="text/css">
	.st0{fill:#662D91;}
	.st1{opacity:0.37;fill:#262262;enable-background:new    ;}
	.st2{fill:#F8991D;}
	.st3{fill:#F1592B;}
</style>
<path class="st0" d="M27.9,1.2L6.1,13.7C4.8,14.5,4,15.9,4,17.5v25.1c0,1.5,0.8,3,2.1,3.7l21.7,12.5c1.3,0.8,3,0.8,4.3,0l21.7-12.5
	c1.3-0.8,2.1-2.2,2.1-3.7V17.5c0-1.5-0.8-3-2.1-3.7L32.1,1.2C30.8,0.4,29.2,0.4,27.9,1.2z"/>
<path class="st1" d="M56,34.4l-12.8-13L16.6,38.6l18.6,18.6l18.6-10.8c1.3-0.8,2.2-2.2,2.2-3.8C56,42.6,56,34.4,56,34.4z"/>
<g>
	<path class="st2" d="M18.6,22h-7.3c-0.3,0-0.6-0.3-0.6-0.6v-0.1c0-0.3,0.3-0.6,0.6-0.6h7.3c0.3,0,0.6,0.3,0.6,0.6v0.1
		C19.2,21.7,18.9,22,18.6,22z"/>
	<ellipse class="st2" cx="8.9" cy="21.3" rx="0.8" ry="0.7"/>
	<path class="st3" d="M20.8,25.2h-7.3c-0.3,0-0.6-0.3-0.6-0.6v-0.1c0-0.3,0.3-0.6,0.6-0.6h7.3c0.3,0,0.6,0.3,0.6,0.6v0.1
		C21.4,24.9,21.1,25.2,20.8,25.2z"/>
	<path class="st3" d="M19.8,28.4h-7.3c-0.3,0-0.6-0.3-0.6-0.6v-0.1c0-0.3,0.3-0.6,0.6-0.6h7.3c0.3,0,0.6,0.3,0.6,0.6v0.1
		C20.5,28.1,20.2,28.4,19.8,28.4z"/>
	<ellipse class="st3" cx="10.2" cy="27.7" rx="0.8" ry="0.7"/>
	<path class="st3" d="M21.9,31.6h-7.3c-0.3,0-0.6-0.3-0.6-0.6v-0.1c0-0.3,0.3-0.6,0.6-0.6h7.3c0.3,0,0.6,0.3,0.6,0.6V31
		C22.5,31.4,22.2,31.6,21.9,31.6z"/>
</g>
<g id="Shopping_Bag">
</g>
<g id="Mail">
	<g>
		<path class="st3" d="M44.1,23.4v13.2c0,1.6-1.3,2.8-2.8,2.8H18.7c-1.6,0-2.8-1.3-2.8-2.8V23.4c0-0.3,0-0.7,0.2-1l0.1-0.2
			c0,0,1.4-1.6,2.4-1.6h22.6c1.1,0,2.1,0.6,2.5,1.6c0,0,0,0,0,0.1c0,0,0,0,0,0.1C44.1,22.7,44.1,23.1,44.1,23.4z"/>
	</g>
	<g>
		<path class="st2" d="M43.5,23.5l-13,7.3c-0.1,0.1-0.3,0.1-0.5,0.1s-0.3,0-0.5-0.1l-13-7.3c-0.4-0.2-0.6-0.8-0.4-1.2
			c0.5-1.1,1.5-1.7,2.6-1.7h22.6c1.1,0,2.2,0.7,2.6,1.7C44.1,22.8,43.9,23.3,43.5,23.5z"/>
	</g>
</g>
</svg>
