<?xml version="1.0" encoding="utf-8"?>
<!-- Generator: Adobe Illustrator 25.2.1, SVG Export Plug-In . SVG Version: 6.00 Build 0)  -->
<svg version="1.1" id="Layer_1" xmlns="http://www.w3.org/2000/svg" xmlns:xlink="http://www.w3.org/1999/xlink" x="0px" y="0px"
	 viewBox="0 0 60 60" style="enable-background:new 0 0 60 60;" xml:space="preserve">
<style type="text/css">
	.st0{fill:#972E35;}
	.st1{opacity:0.12;fill:#262262;enable-background:new    ;}
	.st2{fill:#E6E7E8;}
	.st3{fill:#F1F2F2;}
	.st4{opacity:8.000000e-02;fill:#424345;}
	.st5{fill:#ED1C24;}
	.st6{fill:#FFFFFF;}
</style>
<path class="st0" d="M27.9,1.2L6.1,13.7C4.8,14.5,4,15.9,4,17.5v25.1c0,1.5,0.8,3,2.1,3.7l21.7,12.5c1.3,0.8,3,0.8,4.3,0l21.7-12.5
	c1.3-0.8,2.1-2.2,2.1-3.7V17.5c0-1.5-0.8-3-2.1-3.7L32.1,1.2C30.8,0.4,29.2,0.4,27.9,1.2z"/>
<path class="st1" d="M55.9,34.2l-12.8-13L16.5,38.4L35.1,57l18.6-10.8c1.3-0.8,2.2-2.2,2.2-3.8C55.9,42.4,55.9,34.2,55.9,34.2z"/>
<g id="Shopping_Bag">
</g>
<g>
	<path class="st2" d="M44.1,23.4v13.2c0,1.6-1.3,2.8-2.8,2.8H18.7c-1.6,0-2.8-1.3-2.8-2.8V23.4c0-0.3,0-0.7,0.2-1l0.1-0.2
		c0,0,1.4-1.6,2.4-1.6h22.6c1.1,0,2.1,0.6,2.5,1.6c0,0,0,0,0,0.1c0,0,0,0,0,0.1C44.1,22.7,44.1,23.1,44.1,23.4z"/>
</g>
<g>
	<path class="st3" d="M43.5,23.5l-13,7.3c-0.1,0.1-0.3,0.1-0.5,0.1s-0.3,0-0.5-0.1l-13-7.3c-0.4-0.2-0.6-0.8-0.4-1.2
		c0.5-1.1,1.5-1.7,2.6-1.7h22.6c1.1,0,2.2,0.7,2.6,1.7C44.1,22.8,43.9,23.3,43.5,23.5z"/>
</g>
<path class="st4" d="M42.7,39L32.4,28.3l-7.7,5.9l5.1,5.2h10.8C41.4,39.4,42.1,39.4,42.7,39z"/>
<g>
	<path id="XMLID_8662_" class="st5" d="M35.4,33.1c0.4,0.7-0.1,1.5-0.9,1.5h-9c-0.8,0-1.3-0.9-0.9-1.5l4.5-7.3
		c0.4-0.6,1.3-0.6,1.7,0L35.4,33.1z"/>
	<path id="XMLID_137_" class="st6" d="M30.5,32.5c0.1,0.1,0.2,0.3,0.2,0.5s-0.1,0.4-0.2,0.5c-0.1,0.1-0.3,0.2-0.5,0.2
		c-0.4,0-0.7-0.3-0.7-0.7c0-0.2,0.1-0.4,0.2-0.5c0.1-0.1,0.3-0.2,0.5-0.2C30.2,32.3,30.4,32.4,30.5,32.5z"/>
	<path id="XMLID_136_" class="st6" d="M30.7,28v2.8c0,0.4-0.3,0.7-0.7,0.7s-0.7-0.3-0.7-0.7V28c0-0.4,0.3-0.7,0.7-0.7
		c0.2,0,0.4,0.1,0.5,0.2S30.7,27.8,30.7,28z"/>
</g>
</svg>
