<?xml version="1.0" encoding="utf-8"?>
<!-- Generator: Adobe Illustrator 25.2.1, SVG Export Plug-In . SVG Version: 6.00 Build 0)  -->
<svg version="1.1" id="Layer_1" xmlns="http://www.w3.org/2000/svg" xmlns:xlink="http://www.w3.org/1999/xlink" x="0px" y="0px"
	 viewBox="0 0 60 60" style="enable-background:new 0 0 60 60;" xml:space="preserve">
<style type="text/css">
	.st0{fill:#7E1E2F;}
	.st1{opacity:0.19;fill:#371743;}
	.st2{fill:#F1592B;}
	.st3{fill:#F8991D;}
	.st4{fill:#FFF200;}
	.st5{fill:#E3D200;}
	.st6{fill-rule:evenodd;clip-rule:evenodd;fill:#FFF200;}
</style>
<path class="st0" d="M27.9,1.2L6.1,13.7C4.8,14.5,4,15.9,4,17.5v25.1c0,1.5,0.8,3,2.1,3.7l21.7,12.5c1.3,0.8,3,0.8,4.3,0l21.7-12.5
	c1.3-0.8,2.1-2.2,2.1-3.7V17.5c0-1.5-0.8-3-2.1-3.7L32.1,1.2C30.8,0.4,29.2,0.4,27.9,1.2z"/>
<path class="st1" d="M55.9,42.6V29.8l-11.2-13L24.6,32.9l-3.3,2.2l-1.5,1.7l-0.9,1.7l-0.2,1.3l-1-1.5l-3.9-2.2l-1.9-0.6l-2.6,1.1
	l4.7,5l-0.2,0.2l16.6,17.6c0.6-0.1,1.2-0.2,1.7-0.6l21.7-12.5C55.1,45.5,55.9,44.1,55.9,42.6z"/>
<g id="Shopping_Bag">
</g>
<g id="Mail">
	<g>
		<path class="st2" d="M44.7,16.8L47.6,27c0.4,1.2-0.4,2.5-1.6,2.8l-17.6,5c-1.2,0.4-2.5-0.4-2.8-1.6L22.8,23
			c-0.1-0.2-0.2-0.5-0.1-0.8l0-0.2c0,0,0.7-1.6,1.5-1.8l17.6-5c0.9-0.2,1.8,0,2.3,0.7c0,0,0,0,0,0.1c0,0,0,0,0,0.1
			C44.5,16.2,44.6,16.5,44.7,16.8z"/>
	</g>
	<g>
		<path class="st3" d="M44.2,17l-8.5,8.5c-0.1,0.1-0.2,0.1-0.4,0.2c-0.2,0-0.2,0.1-0.4,0l-11.7-2.8c-0.4-0.1-0.6-0.5-0.6-0.8
			c0.1-1,0.8-1.7,1.6-1.9l17.6-5c0.9-0.2,1.9,0.1,2.4,0.7C44.5,16.3,44.5,16.7,44.2,17z"/>
	</g>
</g>
<ellipse class="st4" cx="18.6" cy="41.5" rx="4.9" ry="1.1"/>
<ellipse class="st5" cx="18.6" cy="41.4" rx="3.2" ry="0.7"/>
<g>
	<g>
		<path class="st6" d="M17.6,38.3l-1.1,1c0.3,0.2,0.4,0.5,0.7,0.8c0.1,0.3,0.3,0.6,0.5,0.9l1.4-0.5c-0.2-0.4-0.4-0.8-0.6-1.2
			C18.2,39,17.9,38.6,17.6,38.3z"/>
		<path class="st6" d="M13.7,36l-0.5,1.4c0.7,0.2,1.4,0.6,2,0.9l0.8-1.3C15.3,36.6,14.5,36.3,13.7,36z"/>
		<path class="st6" d="M9.3,35.1l-0.1,1.5c0.8,0.1,1.5,0.2,2.3,0.3l0.3-1.5C11,35.3,10.2,35.2,9.3,35.1z"/>
	</g>
	<g>
		<path class="st6" d="M22.4,33.7l0.9,1.2c0.3-0.2,0.5-0.4,0.8-0.5c0.3-0.2,0.6-0.3,0.9-0.5l-0.6-1.4c-0.4,0.1-0.7,0.3-1,0.5
			C23.1,33.3,22.7,33.5,22.4,33.7z"/>
		<path class="st6" d="M19.7,36.8l1.3,0.8c0.3-0.6,0.7-1.1,1.2-1.6l-1.1-1C20.5,35.5,20,36.1,19.7,36.8z"/>
		<path class="st6" d="M18.4,40.7l1.5,0.2c0.1-0.6,0.2-1.3,0.4-1.9l-1.4-0.5C18.6,39.2,18.5,39.9,18.4,40.7z"/>
	</g>
</g>
</svg>
