<?xml version="1.0" encoding="utf-8"?>
<!-- Generator: Adobe Illustrator 25.2.1, SVG Export Plug-In . SVG Version: 6.00 Build 0)  -->
<svg version="1.1" id="Layer_1" xmlns="http://www.w3.org/2000/svg" xmlns:xlink="http://www.w3.org/1999/xlink" x="0px" y="0px"
	 viewBox="0 0 60 60" style="enable-background:new 0 0 60 60;" xml:space="preserve">
<style type="text/css">
	.st0{fill:#662D91;}
	.st1{opacity:0.37;fill:#262262;}
	.st2{fill:#F1592B;}
	.st3{fill:#F8991D;}
	.st4{fill:#FFFFFF;}
	.st5{opacity:0.11;}
	.st6{opacity:0.19;}
</style>
<path class="st0" d="M27.7,1.2L5.9,13.7c-1.3,0.8-2.1,2.2-2.1,3.7v25.1c0,1.5,0.8,3,2.1,3.7l21.7,12.5c1.3,0.8,3,0.8,4.3,0
	l21.7-12.5c1.3-0.8,2.1-2.2,2.1-3.7V17.4c0-1.5-0.8-3-2.1-3.7L32,1.2C30.6,0.4,29,0.4,27.7,1.2z"/>
<path class="st1" d="M56,34.4L43.6,21.8l-27,16.7l18.6,18.6l18.6-10.8c1.3-0.8,2.2-2.2,2.2-3.8V34.4z"/>
<g>
	<path class="st2" d="M44.1,23.4v13.2c0,1.6-1.3,2.8-2.8,2.8H18.7c-1.6,0-2.8-1.3-2.8-2.8V23.4c0-0.3,0-0.7,0.2-1c0,0,0,0,0-0.1
		s0,0,0-0.1c0.5-1,2-1.1,3.1-1.1l20.7,0.1c1.1,0,3.4,0,3.9,1c0,0,0,0,0,0.1c0,0,0,0,0,0.1C44.1,22.7,44.1,23.1,44.1,23.4z"/>
</g>
<g id="Shopping_Bag">
</g>
<path class="st3" d="M43.9,22.4c0-0.3-0.1-0.5-0.4-0.7c-0.5-0.3-13-7.3-13-7.3c-0.1-0.1-0.3-0.1-0.5-0.1c-0.1,0-0.3,0-0.5,0.1
	c0,0-12.5,7-13,7.3c-0.3,0.2-0.4,0.4-0.4,0.6c-0.1,0.4,0,0.9,0.4,1.1l13,7.3c0.1,0.1,0.3,0.1,0.5,0.1c0.2,0,0.3,0,0.5-0.1l13-7.3
	C43.8,23.3,44,22.8,43.9,22.4z"/>
<path class="st4" d="M39.5,17.4c0-0.3-0.3-0.6-0.6-0.6H21.2c-0.3,0-0.6,0.3-0.6,0.6v8.4l9,5c0.1,0.1,0.3,0.1,0.5,0.1
	c0.2,0,0.3,0,0.5-0.1l9-5V17.4z"/>
<path class="st5" d="M39.5,25.8l0.4-0.2l0.8-5.3c-0.4-0.2-0.8-0.5-1.2-0.7V25.8z"/>
<g>
	<path class="st6" d="M34.9,21.5h-9.8c-0.2,0-0.3-0.1-0.3-0.3v-0.4c0-0.2,0.1-0.3,0.3-0.3h9.8c0.2,0,0.3,0.1,0.3,0.3v0.4
		C35.1,21.3,35,21.5,34.9,21.5z"/>
	<path class="st6" d="M34.9,23.9h-9.8c-0.2,0-0.3-0.1-0.3-0.3v-0.4c0-0.2,0.1-0.3,0.3-0.3h9.8c0.2,0,0.3,0.1,0.3,0.3v0.4
		C35.1,23.8,35,23.9,34.9,23.9z"/>
	<path class="st6" d="M32.4,26.3h-7.4c-0.2,0-0.3-0.1-0.3-0.3v-0.4c0-0.2,0.1-0.3,0.3-0.3h7.4c0.2,0,0.3,0.1,0.3,0.3v0.4
		C32.7,26.2,32.6,26.3,32.4,26.3z"/>
</g>
</svg>
