<?xml version="1.0" encoding="utf-8"?>
<!-- Generator: Adobe Illustrator 25.2.1, SVG Export Plug-In . SVG Version: 6.00 Build 0)  -->
<svg version="1.1" id="Layer_1" xmlns="http://www.w3.org/2000/svg" xmlns:xlink="http://www.w3.org/1999/xlink" x="0px" y="0px"
	 viewBox="0 0 60 60" style="enable-background:new 0 0 60 60;" xml:space="preserve">
<style type="text/css">
	.st0{fill:#B31F27;}
	.st1{opacity:0.37;fill:#540D40;enable-background:new    ;}
	.st2{fill:#FFFFFF;}
	.st3{fill:#F8991D;}
	.st4{fill:#7EC7EE;}
	.st5{fill:#231F20;}
</style>
<path class="st0" d="M27.9,1.2L6.1,13.7C4.8,14.5,4,15.9,4,17.5v25.1c0,1.5,0.8,3,2.1,3.7l21.7,12.5c1.3,0.8,3,0.8,4.3,0l21.7-12.5
	c1.3-0.8,2.1-2.2,2.1-3.7V17.5c0-1.5-0.8-3-2.1-3.7L32.1,1.2C30.8,0.4,29.2,0.4,27.9,1.2z"/>
<path class="st1" d="M56,34.4l-12.8-13L16.6,38.6l18.6,18.6l18.6-10.8c1.3-0.8,2.2-2.2,2.2-3.8C56,42.6,56,34.4,56,34.4z"/>
<g id="Shopping_Bag">
</g>
<g>
	<path class="st2" d="M17,23.8v15.7c0,1.5,1.2,2.7,2.6,2.7h20.5c1.4,0,2.6-1.2,2.6-2.7V23.8H17z"/>
	<path class="st3" d="M17,23.4v-2.8c0-1.5,1.2-2.7,2.6-2.7h20.5c1.4,0,2.6,1.2,2.6,2.7v2.8H17z"/>
	<g>
		<rect x="30.5" y="29.3" class="st4" width="3.1" height="3.1"/>
		<rect x="20.5" y="34" class="st4" width="3.1" height="3.1"/>
		<rect x="25.5" y="34" class="st4" width="3.1" height="3.1"/>
		<rect x="30.5" y="34" class="st4" width="3.1" height="3.1"/>
		<rect x="35.4" y="29.3" class="st4" width="3.1" height="3.1"/>
		<rect x="35.4" y="34" class="st4" width="3.1" height="3.1"/>
	</g>
	<g>
		<path class="st5" d="M22.7,20L22.7,20c-0.6,0-1.1-0.5-1.1-1.1v-2.5c0-0.6,0.5-1.1,1.1-1.1l0,0c0.6,0,1.1,0.5,1.1,1.1v2.5
			C23.9,19.5,23.4,20,22.7,20z"/>
		<path class="st5" d="M37.2,20L37.2,20c-0.6,0-1.1-0.5-1.1-1.1v-2.5c0-0.6,0.5-1.1,1.1-1.1l0,0c0.6,0,1.1,0.5,1.1,1.1v2.5
			C38.3,19.5,37.8,20,37.2,20z"/>
	</g>
</g>
<polygon class="st4" points="24.9,25.4 25.7,28.1 28.6,28.1 26.3,29.7 27.2,32.4 24.9,30.8 22.6,32.4 23.4,29.7 21.2,28.1 24,28.1 
	"/>
</svg>
