<?xml version="1.0" encoding="utf-8"?>
<!-- Generator: Adobe Illustrator 25.2.1, SVG Export Plug-In . SVG Version: 6.00 Build 0)  -->
<svg version="1.1" id="Layer_1" xmlns="http://www.w3.org/2000/svg" xmlns:xlink="http://www.w3.org/1999/xlink" x="0px" y="0px"
	 viewBox="0 0 60 60" style="enable-background:new 0 0 60 60;" xml:space="preserve">
<style type="text/css">
	.st0{fill:#A05194;}
	.st1{opacity:0.14;fill:#540D40;enable-background:new    ;}
	.st2{fill:#E2F2F0;}
	.st3{fill:#BFE5E6;}
	.st4{fill:#242C2E;}
	.st5{fill:#EE3324;}
	.st6{fill:#35449C;}
	.st7{fill:#DFDB1F;}
	.st8{fill:#FFFFFF;}
	.st9{fill:#5D514D;}
	.st10{fill:#BEC0C2;}
	.st11{fill:#EE2424;}
</style>
<path class="st0" d="M27.9,1.2L6.1,13.7C4.8,14.5,4,15.9,4,17.5v25.1c0,1.5,0.8,3,2.1,3.7l21.7,12.5c1.3,0.8,3,0.8,4.3,0l21.7-12.5
	c1.3-0.8,2.1-2.2,2.1-3.7V17.5c0-1.5-0.8-3-2.1-3.7L32.1,1.2C30.8,0.4,29.2,0.4,27.9,1.2z"/>
<path class="st1" d="M56,34.4L44.6,20.1L15.4,39.5l18,18.5l20.4-11.6c1.3-0.8,2.2-2.2,2.2-3.8C56,42.6,56,34.4,56,34.4z"/>
<g id="Shopping_Bag">
</g>
<g>
	<path class="st2" d="M16.2,20.3h27.6c0.4,0,0.7,0.3,0.7,0.7v17.3c0,0.4-0.3,0.7-0.7,0.7H16.2c-0.4,0-0.7-0.3-0.7-0.7V21
		C15.4,20.6,15.8,20.3,16.2,20.3z"/>
	<rect x="15.4" y="22" class="st3" width="29.1" height="17.1"/>
	<path class="st4" d="M43.8,40.6H16.2c-0.7,0-1.3-0.6-1.3-1.3V20.7c0-0.7,0.6-1.3,1.3-1.3h27.6c0.7,0,1.3,0.6,1.3,1.3v18.6
		C45.1,40,44.5,40.6,43.8,40.6z M16.2,22.5c-0.1,0-0.2,0.1-0.2,0.2v15.8c0,0.1,0.1,0.2,0.2,0.2h27.6c0.1,0,0.2-0.1,0.2-0.2V22.7
		c0-0.1-0.1-0.2-0.2-0.2H16.2z"/>
	<circle class="st5" cx="43.9" cy="20.3" r="0.3"/>
	<circle class="st6" cx="42.7" cy="20.3" r="0.3"/>
	<circle class="st7" cx="41.6" cy="20.3" r="0.3"/>
	<path class="st8" d="M37.2,21.7h-18c-0.2,0-0.4-0.2-0.4-0.4v-0.1c0-0.2,0.2-0.4,0.4-0.4h18c0.2,0,0.4,0.2,0.4,0.4v0.1
		C37.6,21.5,37.4,21.7,37.2,21.7z"/>
	<circle class="st9" cx="17.8" cy="21.2" r="0.4"/>
	<circle class="st9" cx="16.7" cy="21.2" r="0.4"/>
	<g>
		<path class="st8" d="M35.2,33.8H24.9c-0.2,0-0.3-0.1-0.3-0.3v-0.8c0-0.2,0.1-0.3,0.3-0.3h10.3c0.2,0,0.3,0.1,0.3,0.3v0.8
			C35.5,33.7,35.3,33.8,35.2,33.8z"/>
		<g>
			<g>
				<path class="st8" d="M29.3,27.5h-4.4c-0.2,0-0.3-0.2-0.3-0.3v-0.7c0-0.2,0.2-0.3,0.3-0.3h4.4c0.2,0,0.3,0.2,0.3,0.3v0.7
					C29.6,27.3,29.5,27.5,29.3,27.5z"/>
				<path class="st8" d="M35.1,27.5h-4.4c-0.2,0-0.3-0.2-0.3-0.3v-0.7c0-0.2,0.2-0.3,0.3-0.3h4.4c0.2,0,0.3,0.2,0.3,0.3v0.7
					C35.5,27.3,35.3,27.5,35.1,27.5z"/>
			</g>
			<rect x="24.5" y="25" class="st10" width="6.6" height="0.5"/>
		</g>
		<g>
			<path class="st8" d="M35.1,31.2H24.8c-0.2,0-0.3-0.1-0.3-0.3v-0.8c0-0.2,0.1-0.3,0.3-0.3h10.3c0.2,0,0.3,0.1,0.3,0.3v0.8
				C35.4,31,35.3,31.2,35.1,31.2z"/>
			<rect x="24.5" y="28.7" class="st10" width="9.8" height="0.5"/>
		</g>
		<path class="st11" d="M31.9,36.1h-3.8c-0.2,0-0.3-0.1-0.3-0.3v-0.5c0-0.2,0.1-0.3,0.3-0.3h3.8c0.2,0,0.3,0.1,0.3,0.3v0.5
			C32.2,35.9,32.1,36.1,31.9,36.1z"/>
	</g>
</g>
</svg>
