<?xml version="1.0" encoding="utf-8"?>
<!-- Generator: Adobe Illustrator 25.2.1, SVG Export Plug-In . SVG Version: 6.00 Build 0)  -->
<svg version="1.1" id="Layer_1" xmlns="http://www.w3.org/2000/svg" xmlns:xlink="http://www.w3.org/1999/xlink" x="0px" y="0px"
	 viewBox="0 0 60 60" style="enable-background:new 0 0 60 60;" xml:space="preserve">
<style type="text/css">
	.st0{fill:url(#SVGID_1_);}
	.st1{opacity:8.000000e-02;fill:#FFFFFF;enable-background:new    ;}
	.st2{fill:#FFFFFF;}
</style>
<g id="Shopping_Bag">
</g>
<linearGradient id="SVGID_1_" gradientUnits="userSpaceOnUse" x1="72.0785" y1="69.2733" x2="-20.1828" y2="-16.8373">
	<stop  offset="0" style="stop-color:#030305"/>
	<stop  offset="0.5" style="stop-color:#343334"/>
	<stop  offset="1" style="stop-color:#343334"/>
</linearGradient>
<circle class="st0" cx="30" cy="30" r="27.5"/>
<path class="st1" d="M4.4,32c0-15.2,12.3-27.5,27.5-27.5c7.4,0,14.1,2.9,19.1,7.7c-5-5.9-12.6-9.7-20.9-9.7
	C14.8,2.5,2.5,14.8,2.5,30c0,7.8,3.2,14.8,8.4,19.8C6.9,45,4.4,38.8,4.4,32z"/>
<g>
	<path class="st2" d="M21.7,37.5l1.8-8.8l0.2-1.4c0-0.4-0.5-0.7-1.4-0.7l-0.2,0l0.2-1h5l-1.8,8.8l-0.2,1.2l-0.1,0.3
		c0,0.4,0.5,0.7,1.4,0.7l0.2,0l-0.2,1H21.7z M24.5,23.4l0.6-2.8h3.2l-0.6,2.8H24.5z"/>
	<path class="st2" d="M28,41.8l3-15.3h-1.6l0.2-1.1h1.6c0.6-1.8,1.4-3.2,2.4-4.2c1-0.9,2.3-1.4,3.8-1.4c0.5,0,1,0,1.4,0.1
		c0.5,0.1,0.9,0.2,1.4,0.4l-0.6,3.2h-1.3l0-0.2c0.1-0.8,0.2-1.3,0.2-1.4c0-0.3-0.1-0.6-0.3-0.8c-0.2-0.2-0.6-0.3-1-0.3
		c-0.7,0-1.2,0.2-1.5,0.7c-0.3,0.5-0.6,1.5-1,3l-0.2,0.8H38l-0.2,1.1h-3.5l-3,15.3H28z"/>
</g>
</svg>
