<?xml version="1.0" encoding="utf-8"?>
<!-- Generator: Adobe Illustrator 25.2.1, SVG Export Plug-In . SVG Version: 6.00 Build 0)  -->
<svg version="1.1" id="Layer_1" xmlns="http://www.w3.org/2000/svg" xmlns:xlink="http://www.w3.org/1999/xlink" x="0px" y="0px"
	 viewBox="0 0 60 60" style="enable-background:new 0 0 60 60;" xml:space="preserve">
<style type="text/css">
	.st0{fill:url(#SVGID_1_);}
	.st1{opacity:8.000000e-02;fill:#FFFFFF;enable-background:new    ;}
	.st2{fill:#FFFFFF;}
</style>
<g id="Shopping_Bag">
</g>
<linearGradient id="SVGID_1_" gradientUnits="userSpaceOnUse" x1="60.6026" y1="3.4376" x2="-6.4966" y2="66.0635" gradientTransform="matrix(1 0 0 -1 0 62)">
	<stop  offset="0" style="stop-color:#030305"/>
	<stop  offset="0.5" style="stop-color:#343334"/>
	<stop  offset="1" style="stop-color:#343334"/>
</linearGradient>
<circle class="st0" cx="30" cy="30" r="20"/>
<path class="st1" d="M11.4,31.4c0-11,9-20,20-20c5.4,0,10.2,2.1,13.9,5.6c-3.6-4.3-9.2-7-15.2-7C19,10,10,19,10,30
	c0,5.7,2.3,10.8,6.1,14.4C13.2,40.9,11.4,36.4,11.4,31.4z"/>
<g>
	<path class="st2" d="M24,35.4l1.2-6.4l0.2-1.1c0-0.4-0.4-0.5-1-0.5h-0.2l0.2-0.7H28l-1.2,6.4l-0.1,0.8v0.2c0,0.4,0.4,0.5,1,0.5h0.2
		l-0.2,0.7L24,35.4L24,35.4z M26,25.2l0.4-2h2.4l-0.4,2H26z"/>
	<path class="st2" d="M28.6,38.6l2.2-11.1h-1.2l0.2-0.8H31c0.4-1.3,1-2.3,1.8-3c0.7-0.7,1.7-1,2.8-1c0.4,0,0.7,0,1.1,0.1
		c0.4,0.1,0.7,0.2,1,0.3l-0.4,2.3h-1v-0.2c0.1-0.6,0.1-1,0.1-1.1c0-0.3-0.1-0.4-0.3-0.5c-0.2-0.1-0.4-0.2-0.7-0.2
		c-0.5,0-0.9,0.2-1.1,0.5c-0.3,0.4-0.4,1.1-0.7,2.1l-0.1,0.6h2.5l-0.2,0.8h-2.5l-2.3,11.1H28.6z"/>
</g>
</svg>
