<?xml version="1.0" encoding="utf-8"?>
<!-- Generator: Adobe Illustrator 25.2.1, SVG Export Plug-In . SVG Version: 6.00 Build 0)  -->
<svg version="1.1" id="Layer_1" xmlns="http://www.w3.org/2000/svg" xmlns:xlink="http://www.w3.org/1999/xlink" x="0px" y="0px"
	 viewBox="0 0 60 60" style="enable-background:new 0 0 60 60;" xml:space="preserve">
<style type="text/css">
	.st0{fill:url(#SVGID_1_);}
	.st1{opacity:8.000000e-02;fill:#FFFFFF;enable-background:new    ;}
	.st2{fill:#FFFFFF;}
</style>
<g id="Shopping_Bag">
</g>
<linearGradient id="SVGID_1_" gradientUnits="userSpaceOnUse" x1="72.0786" y1="27.2733" x2="-20.1828" y2="-58.8373" gradientTransform="matrix(1 0 0 1 0 42)">
	<stop  offset="0" style="stop-color:#030305"/>
	<stop  offset="0.5" style="stop-color:#343334"/>
	<stop  offset="1" style="stop-color:#343334"/>
</linearGradient>
<circle class="st0" cx="30" cy="30" r="27.5"/>
<path class="st1" d="M4.4,31.9c0-15.1,12.4-27.5,27.5-27.5c7.4,0,14,2.9,19.1,7.7c-4.9-5.9-12.7-9.6-20.9-9.6
	C14.9,2.5,2.5,14.9,2.5,30c0,7.8,3.2,14.8,8.4,19.8C6.9,45,4.4,38.8,4.4,31.9z"/>
<g>
	<path class="st2" d="M21.8,37.4l1.7-8.8l0.3-1.5c0-0.6-0.6-0.7-1.4-0.7H22l0.3-1h4.9l-1.7,8.8l-0.1,1.1v0.3c0,0.5,0.5,0.7,1.4,0.7
		h0.3l-0.3,1L21.8,37.4L21.8,37.4z M24.5,23.4l0.5-2.8h3.3l-0.5,2.8H24.5z"/>
	<path class="st2" d="M28.1,41.8l3-15.3h-1.7l0.3-1.1h1.6c0.5-1.8,1.4-3.2,2.5-4.1c1-1,2.3-1.4,3.8-1.4c0.6,0,1,0,1.5,0.1
		c0.6,0.1,1,0.3,1.4,0.4L40,23.7h-1.4v-0.3c0.1-0.8,0.1-1.4,0.1-1.5c0-0.4-0.1-0.5-0.4-0.7s-0.6-0.3-1-0.3c-0.7,0-1.2,0.3-1.5,0.7
		c-0.4,0.6-0.6,1.5-1,2.9l-0.1,0.8h3.4L38,26.4h-3.4l-3.2,15.3h-3.3V41.8z"/>
</g>
</svg>
