<?xml version="1.0" encoding="utf-8"?>
<!-- Generator: Adobe Illustrator 25.2.1, SVG Export Plug-In . SVG Version: 6.00 Build 0)  -->
<svg version="1.1" id="Layer_1" xmlns="http://www.w3.org/2000/svg" xmlns:xlink="http://www.w3.org/1999/xlink" x="0px" y="0px"
	 viewBox="0 0 60 60" style="enable-background:new 0 0 60 60;" xml:space="preserve">
<style type="text/css">
	.st0{fill-rule:evenodd;clip-rule:evenodd;fill:url(#SVGID_1_);}
	.st1{fill-rule:evenodd;clip-rule:evenodd;fill:url(#SVGID_2_);}
	.st2{fill-rule:evenodd;clip-rule:evenodd;fill:url(#SVGID_3_);}
</style>
<g>
	
		<linearGradient id="SVGID_1_" gradientUnits="userSpaceOnUse" x1="48.5604" y1="247.9572" x2="11.381" y2="208.0872" gradientTransform="matrix(1 0 0 1 0 -198)">
		<stop  offset="0" style="stop-color:#030305"/>
		<stop  offset="0.5" style="stop-color:#343334"/>
		<stop  offset="1" style="stop-color:#343334"/>
	</linearGradient>
	<path class="st0" d="M3.1,28.6L28.6,3c0.8-0.8,1.9-0.8,2.8,0l25.4,25.6c0.8,0.8,0.8,1.9,0,2.8L31.4,57c-0.8,0.8-1.9,0.8-2.8,0
		L3.1,31.4C2.2,30.5,2.2,29.5,3.1,28.6z"/>
	<g>
		<g>
			
				<linearGradient id="SVGID_2_" gradientUnits="userSpaceOnUse" x1="21.0143" y1="231.2444" x2="28.0119" y2="223.8051" gradientTransform="matrix(1 0 0 1 0 -198)">
				<stop  offset="0" style="stop-color:#E5E7E5"/>
				<stop  offset="1" style="stop-color:#FFFFFF"/>
			</linearGradient>
			<path class="st1" d="M21.9,37.7L21.9,37.7L21.9,37.7L21.9,37.7L21.9,37.7L21.9,37.7L21.9,37.7L21.9,37.7L21.9,37.7L21.9,37.7
				c0,0.1,0.1,0.1,0.1,0.3l0,0l0,0l0,0c0.1,0.1,0.1,0.1,0.1,0.1l0,0l0,0l0,0l0,0l0,0l0,0l0,0l0,0l0,0h4.7l0,0l0,0l0,0l0,0l0,0l0,0
				l0,0l0,0l0,0C27,38.1,27,38,27,38l0,0l0,0l0,0c0.1-0.1,0.1-0.1,0.1-0.3l0,0l0,0l0,0l0,0l0,0l0,0l0,0l0,0l0,0V21.2l0,0l0,0l0,0
				l0,0l0,0l0,0l0,0l0,0l0,0c0-0.1-0.1-0.1-0.1-0.1l0,0l0,0l0,0c-0.1-0.1-0.1-0.1-0.1-0.1l0,0l0,0l0,0l0,0l0,0l0,0l0,0l0,0l0,0h-4.7
				l0,0l0,0l0,0l0,0l0,0l0,0l0,0l0,0l0,0c-0.1,0-0.1,0.1-0.1,0.1l0,0l0,0l0,0c-0.1,0.1-0.1,0.1-0.1,0.1l0,0l0,0l0,0l0,0l0,0l0,0l0,0
				l0,0l0,0V37.7z"/>
		</g>
		<g>
			
				<linearGradient id="SVGID_3_" gradientUnits="userSpaceOnUse" x1="31.972" y1="231.3581" x2="38.9697" y2="223.9187" gradientTransform="matrix(1 0 0 1 0 -198)">
				<stop  offset="0" style="stop-color:#E5E7E5"/>
				<stop  offset="1" style="stop-color:#FFFFFF"/>
			</linearGradient>
			<path class="st2" d="M32.8,37.7L32.8,37.7L32.8,37.7L32.8,37.7L32.8,37.7L32.8,37.7L32.8,37.7L32.8,37.7L32.8,37.7L32.8,37.7
				c0,0.1,0.1,0.1,0.1,0.3l0,0l0,0l0,0c0.1,0.1,0.1,0.1,0.1,0.1l0,0l0,0l0,0l0,0l0,0l0,0l0,0l0,0l0,0h4.8l0,0l0,0l0,0l0,0l0,0l0,0
				l0,0l0,0l0,0C38,38.1,38,38,38,38l0,0l0,0l0,0c0.1-0.1,0.1-0.1,0.1-0.1l0,0l0,0l0,0l0,0l0,0l0,0l0,0l0,0l0,0V21.3l0,0l0,0l0,0
				l0,0l0,0l0,0l0,0l0,0l0,0c0-0.1-0.1-0.1-0.1-0.1l0,0l0,0l0,0c-0.1-0.1-0.1-0.1-0.1-0.1l0,0l0,0l0,0l0,0l0,0l0,0l0,0l0,0l0,0h-4.7
				l0,0l0,0l0,0l0,0l0,0l0,0l0,0l0,0l0,0c-0.1,0-0.1,0.1-0.1,0.1l0,0l0,0l0,0c-0.1,0.1-0.1,0.1-0.1,0.1l0,0l0,0l0,0l0,0l0,0l0,0l0,0
				l0,0l0,0L32.8,37.7L32.8,37.7z"/>
		</g>
	</g>
</g>
</svg>
