<?xml version="1.0" encoding="utf-8"?>
<!-- Generator: Adobe Illustrator 25.2.1, SVG Export Plug-In . SVG Version: 6.00 Build 0)  -->
<svg version="1.1" id="Layer_1" xmlns="http://www.w3.org/2000/svg" xmlns:xlink="http://www.w3.org/1999/xlink" x="0px" y="0px"
	 viewBox="0 0 60 60" style="enable-background:new 0 0 60 60;" xml:space="preserve">
<style type="text/css">
	.st0{fill-rule:evenodd;clip-rule:evenodd;fill:url(#SVGID_1_);}
	.st1{fill-rule:evenodd;clip-rule:evenodd;fill:url(#SVGID_2_);}
</style>
<g>
	
		<linearGradient id="SVGID_1_" gradientUnits="userSpaceOnUse" x1="49.6022" y1="10.9792" x2="10.3949" y2="53.0239" gradientTransform="matrix(1 0 0 -1 0 62)">
		<stop  offset="0" style="stop-color:#030305"/>
		<stop  offset="0.5" style="stop-color:#343334"/>
		<stop  offset="1" style="stop-color:#343334"/>
	</linearGradient>
	<path class="st0" d="M1.6,28.5L28.5,1.6c0.8-0.8,2.1-0.8,2.9,0l26.9,26.9c0.8,0.8,0.8,2.1,0,2.9L31.5,58.4c-0.8,0.8-2.1,0.8-2.9,0
		L1.6,31.5C0.8,30.6,0.8,29.4,1.6,28.5z"/>
	<linearGradient id="SVGID_2_" gradientUnits="userSpaceOnUse" x1="23.8898" y1="25.1641" x2="31.7918" y2="33.565">
		<stop  offset="0" style="stop-color:#E5E7E5"/>
		<stop  offset="1" style="stop-color:#FFFFFF"/>
	</linearGradient>
	<path class="st1" d="M40.2,29.4l-14.5-9.5c-0.2-0.1-0.5-0.1-0.7,0v19.5c0.2,0.1,0.5,0.1,0.7,0l14.5-9.5
		C40.4,29.7,40.4,29.5,40.2,29.4z"/>
</g>
</svg>
