<?xml version="1.0" encoding="utf-8"?>
<!-- Generator: Adobe Illustrator 25.2.1, SVG Export Plug-In . SVG Version: 6.00 Build 0)  -->
<svg version="1.1" id="Layer_1" xmlns="http://www.w3.org/2000/svg" xmlns:xlink="http://www.w3.org/1999/xlink" x="0px" y="0px"
	 viewBox="0 0 60 60" style="enable-background:new 0 0 60 60;" xml:space="preserve">
<style type="text/css">
	.st0{fill:#483870;}
	.st1{opacity:0.17;fill:#013522;enable-background:new    ;}
	.st2{fill:#7E7E4A;}
	.st3{fill:#7E4E5B;}
	.st4{fill:#717D8A;}
	.st5{fill:#FFFFFF;}
</style>
<path class="st0" d="M27.7,1.2L5.9,13.7c-1.3,0.8-2.1,2.2-2.1,3.7v25.1c0,1.5,0.8,3,2.1,3.7l21.7,12.5c1.3,0.8,3,0.8,4.3,0
	l21.7-12.5c1.3-0.8,2.1-2.2,2.1-3.7V17.4c0-1.5-0.8-3-2.1-3.7L32,1.2C30.6,0.4,29,0.4,27.7,1.2z"/>
<path class="st1" d="M55.8,30.9l-12-13.5l-12.5,0.3l-2.4-1.6l-12.7,0.6l-0.3,12.4l2.2,2.8L17,43.7l16,14.6l20.8-12
	c1.3-0.8,2.2-2.2,2.2-3.8L55.8,30.9z"/>
<g id="Shopping_Bag">
</g>
<g>
	<g>
		<path class="st2" d="M29.9,30.9H16.8c0,0,0,0.1,0,0.2v12.2c0,0.3,0.3,0.7,0.7,0.7H30V30.9H29.9z M23.6,33.9c0.7,0,1.3,0.6,1.3,1.3
			s-0.6,1.3-1.3,1.3s-1.3-0.6-1.3-1.3C22.3,34.4,22.9,33.9,23.6,33.9z M25.9,40.2h-4.7c-0.1,0-0.2,0-0.2-0.1v-0.5
			c0-1.4,1.1-2.5,2.5-2.5s2.5,1.1,2.5,2.5V40C26.1,40.1,26,40.2,25.9,40.2z"/>
	</g>
	<g>
		<path class="st3" d="M30.7,30.9v13h12.5c0.3,0,0.6-0.3,0.6-0.7V30.9H30.7z M37.1,33.9c0.7,0,1.3,0.6,1.3,1.3s-0.6,1.3-1.3,1.3
			s-1.3-0.6-1.3-1.3S36.4,33.9,37.1,33.9z M39.6,40.1c0,0.1,0,0.2-0.1,0.2h-4.7c-0.1,0-0.1-0.1-0.1-0.2v-0.5c0-1.4,1.1-2.5,2.5-2.5
			s2.5,1.1,2.5,2.5v0.5H39.6z"/>
	</g>
	<g>
		<path class="st4" d="M30.7,30.1h13.2V17.7c0-0.3-0.3-0.6-0.6-0.6H30.9c-0.1,0-0.2,0-0.2,0L30.7,30.1L30.7,30.1z M37.1,20.6
			c0.7,0,1.3,0.6,1.3,1.3c0,0.7-0.6,1.3-1.3,1.3s-1.3-0.6-1.3-1.3S36.4,20.6,37.1,20.6z M34.6,26.2c0-1.4,1.1-2.5,2.5-2.5
			s2.5,1.1,2.5,2.5v0.5c0,0.1,0,0.1-0.1,0.1h-4.7c-0.1,0-0.1,0-0.1-0.1v-0.5H34.6z"/>
	</g>
	<g>
		<path class="st5" d="M22.9,18.1c0,0.2-0.2,0.4-0.4,0.4c-0.2,0-0.4-0.2-0.4-0.4v-0.7h-5v4.9H18c0.2,0,0.4,0.2,0.4,0.4
			s-0.2,0.4-0.4,0.4h-0.8V28h5v-0.7c0-0.2,0.2-0.4,0.4-0.4c0.2,0,0.4,0.2,0.4,0.4V28h5v-4.9h-0.7c-0.2,0-0.4-0.2-0.4-0.4
			s0.2-0.4,0.4-0.4H28v-4.9h-5L22.9,18.1L22.9,18.1z M24.9,24.9v0.5c0,0.1-0.1,0.2-0.2,0.2h-4.3c-0.1,0-0.2-0.1-0.2-0.2v-0.5
			c0-1.3,1-2.3,2.3-2.3C23.8,22.6,24.9,23.6,24.9,24.9z M23.7,20.9c0,0.7-0.5,1.2-1.2,1.2s-1.2-0.5-1.2-1.2s0.5-1.2,1.2-1.2
			C23.2,19.7,23.7,20.2,23.7,20.9z"/>
	</g>
	<g>
		<path class="st5" d="M29.3,28.8V16.6c0-0.3-0.3-0.6-0.6-0.6H16.4c-0.3,0-0.6,0.3-0.6,0.6v12.2c0,0.3,0.3,0.6,0.6,0.6h12.3
			C29,29.4,29.3,29.2,29.3,28.8z M28.6,28.1c0,0.3-0.3,0.6-0.6,0.6H17.1c-0.3,0-0.6-0.3-0.6-0.6V17.3c0-0.3,0.3-0.6,0.6-0.6h10.8
			c0.3,0,0.6,0.3,0.6,0.6L28.6,28.1L28.6,28.1z"/>
	</g>
</g>
</svg>
