<?xml version="1.0" encoding="utf-8"?>
<!-- Generator: Adobe Illustrator 25.2.1, SVG Export Plug-In . SVG Version: 6.00 Build 0)  -->
<svg version="1.1" id="Layer_1" xmlns="http://www.w3.org/2000/svg" xmlns:xlink="http://www.w3.org/1999/xlink" x="0px" y="0px"
	 viewBox="0 0 60 60" style="enable-background:new 0 0 60 60;" xml:space="preserve">
<style type="text/css">
	.st0{fill:#EA5A24;}
	.st1{opacity:0.22;fill:#231F20;enable-background:new    ;}
	.st2{fill:#C7C8C9;}
	.st3{fill:#D6D8D9;}
	.st4{fill:#F1F2F2;}
	.st5{opacity:0.14;fill:#FFFFFF;}
</style>
<path class="st0" d="M27.9,1.2L6.1,13.7C4.8,14.5,4,15.9,4,17.5v25.1c0,1.5,0.8,3,2.1,3.7l21.7,12.5c1.3,0.8,3,0.8,4.3,0l21.7-12.5
	c1.3-0.8,2.1-2.2,2.1-3.7V17.5c0-1.5-0.8-3-2.1-3.7L32.1,1.2C30.8,0.4,29.2,0.4,27.9,1.2z"/>
<path class="st1" d="M55.9,34.2l-12-15.8L12.2,32.7L35.1,57l18.6-10.8c1.3-0.8,2.2-2.2,2.2-3.8C55.9,42.4,55.9,34.2,55.9,34.2z"/>
<g id="Shopping_Bag">
</g>
<g id="Paper_Plane_1_">
	<polygon id="Bttom_Fold" class="st2" points="25.5,35.8 25.5,41.8 34,35.8 	"/>
	<polygon id="Fold" class="st3" points="25.5,41.8 22,34.8 44,18.2 25.5,35.8 	"/>
	<polygon id="Right_Wing" class="st4" points="36,41.8 25.5,35.8 44,18.2 	"/>
	<polygon id="Left_Wing" class="st4" points="22,34.8 12,32.8 44,18.2 	"/>
	<polygon id="Right_Wing_1_" class="st4" points="36,41.8 35.2,41.4 44,18.2 	"/>
</g>
<polygon class="st5" points="36,19.8 17.4,21.4 20.4,19.6 38,19.1 "/>
<polygon class="st5" points="29,23.2 10.8,26 9.3,24.7 27.3,22.8 "/>
</svg>
