<?xml version="1.0" encoding="utf-8"?>
<!-- Generator: Adobe Illustrator 25.2.1, SVG Export Plug-In . SVG Version: 6.00 Build 0)  -->
<svg version="1.1" id="Layer_1" xmlns="http://www.w3.org/2000/svg" xmlns:xlink="http://www.w3.org/1999/xlink" x="0px" y="0px"
	 viewBox="0 0 60 60" style="enable-background:new 0 0 60 60;" xml:space="preserve">
<style type="text/css">
	.st0{fill:#CBBB15;}
	.st1{opacity:0.24;fill:#540D40;enable-background:new    ;}
	.st2{fill:#162420;}
	.st3{enable-background:new    ;}
	.st4{fill:#FFFFFF;}
</style>
<path class="st0" d="M27.9,1.2L6.1,13.7C4.8,14.5,4,15.9,4,17.5v25.1c0,1.5,0.8,3,2.1,3.7l21.7,12.5c1.3,0.8,3,0.8,4.3,0l21.7-12.5
	c1.3-0.8,2.1-2.2,2.1-3.7V17.5c0-1.5-0.8-3-2.1-3.7L32.1,1.2C30.8,0.4,29.2,0.4,27.9,1.2z"/>
<path class="st1" d="M56,34.4l-12.8-13L16.6,38.6l18.6,18.6l18.6-10.8c1.3-0.8,2.2-2.2,2.2-3.8C56,42.6,56,34.4,56,34.4z"/>
<g id="Shopping_Bag">
</g>
<path class="st2" d="M45.2,43.8l-6.7-4.3H18.8c-2.2,0-4-1.8-4-4V24c0-2.2,1.8-4,4-4h22.4c2.2,0,4,1.8,4,4
	C45.2,24,45.2,43.8,45.2,43.8z"/>
<g class="st3">
	<path class="st4" d="M24.9,27.4l-0.8,0.7c-0.2-0.1-0.4-0.3-0.5-0.3c-0.1-0.1-0.3-0.1-0.5-0.1c-0.5,0-0.7,0.2-0.7,0.5
		c0,0.2,0.3,0.5,0.9,0.7c0.6,0.2,1,0.5,1.3,0.8c0.3,0.3,0.4,0.6,0.4,1c0,0.5-0.2,0.9-0.6,1.2c-0.4,0.3-0.8,0.5-1.3,0.5
		c-0.8,0-1.4-0.4-1.9-1.1l0.9-0.4c0.3,0.3,0.7,0.5,1,0.5c0.2,0,0.5-0.1,0.6-0.2c0.2-0.1,0.3-0.3,0.3-0.5c0-0.3-0.3-0.6-0.9-0.8
		c-0.6-0.2-1.1-0.5-1.3-0.7c-0.2-0.3-0.4-0.6-0.4-0.9c0-0.5,0.2-0.8,0.5-1.1s0.8-0.5,1.3-0.5C23.7,26.6,24.3,26.9,24.9,27.4z"/>
	<path class="st4" d="M26.1,32.3v-5.5h1.1v0.8c0.3-0.3,0.5-0.6,0.8-0.8c0.2-0.2,0.5-0.2,0.9-0.2c0.4,0,0.7,0.1,1,0.3
		c0.2,0.2,0.4,0.5,0.6,0.9c0.3-0.4,0.6-0.7,0.8-0.9c0.3-0.2,0.6-0.3,0.9-0.3c0.4,0,0.8,0.2,1.1,0.5c0.3,0.3,0.5,0.7,0.5,1.2v4h-1.2
		v-3.7c0-0.6-0.3-0.9-0.9-0.9c-0.3,0-0.6,0.2-0.9,0.5c-0.2,0.3-0.4,0.7-0.4,1.2v3h-1.2v-3.6c0-0.7-0.3-1.1-0.9-1.1
		c-0.4,0-0.7,0.1-0.9,0.4c-0.2,0.3-0.4,0.7-0.4,1.1v3.1H26.1z"/>
	<path class="st4" d="M38.6,27.4l-0.8,0.7c-0.2-0.1-0.4-0.3-0.5-0.3c-0.1-0.1-0.3-0.1-0.5-0.1c-0.5,0-0.7,0.2-0.7,0.5
		c0,0.2,0.3,0.5,0.9,0.7c0.6,0.2,1,0.5,1.3,0.8c0.3,0.3,0.4,0.6,0.4,1c0,0.5-0.2,0.9-0.6,1.2s-0.8,0.5-1.3,0.5
		c-0.8,0-1.4-0.4-1.9-1.1l0.9-0.4c0.3,0.3,0.7,0.5,1,0.5c0.2,0,0.5-0.1,0.6-0.2c0.2-0.1,0.3-0.3,0.3-0.5c0-0.3-0.3-0.6-0.9-0.8
		c-0.6-0.2-1.1-0.5-1.3-0.7c-0.2-0.3-0.4-0.6-0.4-0.9c0-0.5,0.2-0.8,0.5-1.1s0.8-0.5,1.3-0.5S38,26.9,38.6,27.4z"/>
</g>
</svg>
