<?xml version="1.0" encoding="utf-8"?>
<!-- Generator: Adobe Illustrator 25.2.1, SVG Export Plug-In . SVG Version: 6.00 Build 0)  -->
<svg version="1.1" id="Layer_1" xmlns="http://www.w3.org/2000/svg" xmlns:xlink="http://www.w3.org/1999/xlink" x="0px" y="0px"
	 viewBox="0 0 60 60" style="enable-background:new 0 0 60 60;" xml:space="preserve">
<style type="text/css">
	.st0{fill-rule:evenodd;clip-rule:evenodd;fill:url(#SVGID_1_);}
	.st1{fill-rule:evenodd;clip-rule:evenodd;fill:url(#SVGID_2_);}
</style>
<g>
	
		<linearGradient id="SVGID_1_" gradientUnits="userSpaceOnUse" x1="43.4848" y1="-222.5143" x2="16.4453" y2="-193.518" gradientTransform="matrix(1 0 0 -1 0 -178)">
		<stop  offset="0" style="stop-color:#030305"/>
		<stop  offset="0.5" style="stop-color:#343334"/>
		<stop  offset="1" style="stop-color:#343334"/>
	</linearGradient>
	<path class="st0" d="M10.4,29L29,10.4c0.6-0.6,1.4-0.6,2,0L49.5,29c0.6,0.6,0.6,1.4,0,2L31,49.6c-0.6,0.6-1.4,0.6-2,0L10.4,31
		C9.8,30.4,9.8,29.6,10.4,29z"/>
	
		<linearGradient id="SVGID_2_" gradientUnits="userSpaceOnUse" x1="26.8074" y1="-15.3447" x2="33.152" y2="-8.5995" gradientTransform="matrix(1 0 0 1 0 42)">
		<stop  offset="0" style="stop-color:#E5E7E5"/>
		<stop  offset="1" style="stop-color:#FFFFFF"/>
	</linearGradient>
	<path class="st1" d="M34.8,35.1h-9.7c-0.1,0-0.2-0.1-0.2-0.2v-9.8c0-0.1,0.1-0.2,0.2-0.2h9.7c0.1,0,0.2,0.1,0.2,0.2v9.7
		C35.1,35,35,35.1,34.8,35.1z"/>
</g>
</svg>
