<?xml version="1.0" encoding="utf-8"?>
<!-- Generator: Adobe Illustrator 25.2.1, SVG Export Plug-In . SVG Version: 6.00 Build 0)  -->
<svg version="1.1" id="Layer_1" xmlns="http://www.w3.org/2000/svg" xmlns:xlink="http://www.w3.org/1999/xlink" x="0px" y="0px"
	 viewBox="0 0 60 60" style="enable-background:new 0 0 60 60;" xml:space="preserve">
<style type="text/css">
	.st0{fill-rule:evenodd;clip-rule:evenodd;fill:url(#SVGID_1_);}
	.st1{fill-rule:evenodd;clip-rule:evenodd;fill:url(#SVGID_2_);}
</style>
<g>
	
		<linearGradient id="SVGID_1_" gradientUnits="userSpaceOnUse" x1="48.5604" y1="247.9572" x2="11.381" y2="208.0872" gradientTransform="matrix(1 0 0 1 0 -198)">
		<stop  offset="0" style="stop-color:#030305"/>
		<stop  offset="0.5" style="stop-color:#343334"/>
		<stop  offset="1" style="stop-color:#343334"/>
	</linearGradient>
	<path class="st0" d="M3.1,28.6L28.6,3c0.8-0.8,1.9-0.8,2.8,0l25.4,25.6c0.8,0.8,0.8,1.9,0,2.8L31.4,57c-0.8,0.8-1.9,0.8-2.8,0
		L3.1,31.4C2.2,30.5,2.2,29.5,3.1,28.6z"/>
	
		<linearGradient id="SVGID_2_" gradientUnits="userSpaceOnUse" x1="25.6264" y1="76.5966" x2="34.3502" y2="67.3219" gradientTransform="matrix(1 0 0 -1 0 102)">
		<stop  offset="0" style="stop-color:#E5E7E5"/>
		<stop  offset="1" style="stop-color:#FFFFFF"/>
	</linearGradient>
	<path class="st1" d="M36.6,37H23.3c-0.1,0-0.3-0.1-0.3-0.3V23.3c0-0.1,0.1-0.3,0.3-0.3h13.3c0.1,0,0.3,0.1,0.3,0.3v13.3
		C37,36.9,36.9,37,36.6,37z"/>
</g>
</svg>
