<?xml version="1.0" encoding="utf-8"?>
<!-- Generator: Adobe Illustrator 25.2.1, SVG Export Plug-In . SVG Version: 6.00 Build 0)  -->
<svg version="1.1" id="Layer_1" xmlns="http://www.w3.org/2000/svg" xmlns:xlink="http://www.w3.org/1999/xlink" x="0px" y="0px"
	 viewBox="0 0 60 60" style="enable-background:new 0 0 60 60;" xml:space="preserve">
<style type="text/css">
	.st0{fill:#864F94;}
	.st1{opacity:0.2;fill:#540D40;enable-background:new    ;}
	.st2{fill:#E2F2F0;}
	.st3{fill:#162420;}
	.st4{fill:#8A162D;}
	.st5{fill:#32B44A;}
	.st6{fill:#333292;}
	.st7{fill:#958F99;}
</style>
<path class="st0" d="M27.9,1.2L6.1,13.7C4.8,14.5,4,15.9,4,17.5v25.1c0,1.5,0.8,3,2.1,3.7l21.7,12.5c1.3,0.8,3,0.8,4.3,0l21.7-12.5
	c1.3-0.8,2.1-2.2,2.1-3.7V17.5c0-1.5-0.8-3-2.1-3.7L32.1,1.2C30.8,0.4,29.2,0.4,27.9,1.2z"/>
<path class="st1" d="M56,34.4L42.6,19.8L17.3,36l6.1,6.3l-0.8,1.9l14.1,12l17.1-9.8c1.3-0.8,2.2-2.2,2.2-3.8
	C56,42.6,56,34.4,56,34.4z"/>
<g id="Shopping_Bag">
</g>
<g>
	<path class="st2" d="M18.1,19.8h23.8c0.3,0,0.6,0.3,0.6,0.6v14.9c0,0.3-0.3,0.6-0.6,0.6H18.1c-0.3,0-0.6-0.3-0.6-0.6V20.5
		C17.4,20.1,17.7,19.8,18.1,19.8z"/>
	<path class="st3" d="M41.8,19.5H18.1c-0.5,0-1,0.4-1,1v14.9c0,0.5,0.4,1,1,1h5.3c0.1,0.3,0.4,0.6,0.8,0.6h1.4L22.4,44
		c-0.1,0.3,0.1,0.6,0.4,0.6h0.3c0.2,0,0.3-0.1,0.4-0.2l2.3-5h3.8l0,3c0,0.3,0.2,0.4,0.4,0.4s0.4-0.1,0.4-0.4l0-3h3.8l2.3,5
		c0.1,0.1,0.2,0.2,0.4,0.2h0.3c0.3,0,0.5-0.3,0.4-0.6l-3.2-7.1h1.4c0.4,0,0.7-0.2,0.8-0.6h5.3c0.5,0,1-0.4,1-1V20.5
		C42.8,19.9,42.4,19.5,41.8,19.5z M25.9,38.8l0.9-1.9h2.7l0,1.9H25.9z M34,38.8h-3.6l0-1.9h2.7L34,38.8z M18.1,35.6
		c-0.2,0-0.3-0.1-0.3-0.3V20.5c0-0.2,0.1-0.3,0.3-0.3h23.8c0.2,0,0.3,0.1,0.3,0.3v14.9c0,0.2-0.1,0.3-0.3,0.3H18.1z"/>
	<g>
		<path class="st4" d="M25.7,30.3h-0.4c-0.6,0-1-0.5-1-1V28c0-0.6,0.5-1,1-1h0.4c0.6,0,1,0.5,1,1v1.3C26.7,29.9,26.2,30.3,25.7,30.3
			z"/>
		<path class="st5" d="M30.2,30.3h-0.6c-0.5,0-1-0.4-1-1v0c0-0.5,0.4-1,1-1h0.6c0.5,0,1,0.4,1,1v0C31.2,29.9,30.7,30.3,30.2,30.3z"
			/>
		<path class="st6" d="M34.7,30.3h-0.4c-0.6,0-1-0.5-1-1v-3.6c0-0.6,0.5-1,1-1h0.4c0.6,0,1,0.5,1,1v3.6
			C35.7,29.9,35.2,30.3,34.7,30.3z"/>
		<g>
			<path class="st7" d="M25.4,31.6h0.2l0.6,1.4h-0.3l-0.1-0.3h-0.5L25.2,33h-0.3L25.4,31.6z M25.6,32.1l-0.2,0.4h0.3L25.6,32.1z"/>
		</g>
		<g>
			<path class="st7" d="M29.6,31.6H30c0.2,0,0.3,0,0.3,0.1c0.1,0.1,0.1,0.2,0.1,0.2c0,0.1,0,0.1,0,0.1c0,0-0.1,0.1-0.1,0.1
				c0.1,0,0.2,0.1,0.2,0.1c0,0.1,0.1,0.1,0.1,0.2c0,0.1,0,0.2-0.1,0.3C30.3,32.9,30.2,33,30,33h-0.5V31.6z M29.8,31.8v0.3h0.1
				c0,0,0.1,0,0.1,0c0,0,0.1-0.1,0.1-0.1c0,0,0-0.1,0-0.1C30,31.9,30,31.8,29.8,31.8L29.8,31.8z M29.8,32.4v0.4H30
				c0.2,0,0.2-0.1,0.2-0.2c0-0.1,0-0.1-0.1-0.1c0,0-0.1-0.1-0.2-0.1H29.8z"/>
		</g>
		<g>
			<path class="st7" d="M35,31.7V32c-0.1-0.1-0.3-0.1-0.4-0.1c-0.1,0-0.2,0-0.3,0.1c-0.1,0.1-0.1,0.2-0.1,0.3c0,0.1,0,0.2,0.1,0.3
				c0.1,0.1,0.2,0.1,0.3,0.1c0.1,0,0.2,0,0.4-0.1v0.3C34.8,33,34.7,33,34.6,33c-0.2,0-0.3-0.1-0.5-0.2c-0.1-0.1-0.2-0.3-0.2-0.5
				c0-0.2,0.1-0.4,0.2-0.5s0.3-0.2,0.5-0.2C34.7,31.6,34.8,31.6,35,31.7z"/>
		</g>
	</g>
</g>
</svg>
