<?xml version="1.0" encoding="utf-8"?>
<!-- Generator: Adobe Illustrator 25.2.1, SVG Export Plug-In . SVG Version: 6.00 Build 0)  -->
<svg version="1.1" id="Layer_1" xmlns="http://www.w3.org/2000/svg" xmlns:xlink="http://www.w3.org/1999/xlink" x="0px" y="0px"
	 viewBox="0 0 60 60" style="enable-background:new 0 0 60 60;" xml:space="preserve">
<style type="text/css">
	.st0{fill:url(#SVGID_1_);}
	.st1{opacity:8.000000e-02;fill:#FFFFFF;enable-background:new    ;}
	.st2{fill:#FFFFFF;}
	.st3{opacity:0.1;fill:#FFFFFF;enable-background:new    ;}
</style>
<g id="Shopping_Bag">
</g>
<linearGradient id="SVGID_1_" gradientUnits="userSpaceOnUse" x1="72.0786" y1="27.2733" x2="-20.1828" y2="-58.8373" gradientTransform="matrix(1 0 0 1 0 42)">
	<stop  offset="0" style="stop-color:#030305"/>
	<stop  offset="0.5" style="stop-color:#343334"/>
	<stop  offset="1" style="stop-color:#343334"/>
</linearGradient>
<circle class="st0" cx="30" cy="30" r="27.5"/>
<path class="st1" d="M4.4,31.9c0-15.1,12.4-27.5,27.5-27.5c7.4,0,14,2.9,19.1,7.7c-4.9-5.9-12.7-9.6-20.9-9.6
	C14.9,2.5,2.5,14.9,2.5,30c0,7.8,3.2,14.8,8.4,19.8C6.9,45,4.4,38.8,4.4,31.9z"/>
<g>
	<path class="st2" d="M30,47.3c-9.6,0-17.3-7.8-17.3-17.3S20.4,12.7,30,12.7S47.3,20.4,47.3,30S39.6,47.3,30,47.3z M30,15.4
		c-8,0-14.6,6.5-14.6,14.6S22,44.6,30,44.6S44.6,38,44.6,30S38,15.4,30,15.4z"/>
	<path class="st3" d="M16.2,32.5c0-8.8,7.2-16,16-16c3.6,0.3,7,1.9,9.2,4.8c-2.2-4.7-7-7.7-12.2-7.7c-8.8,0-16,7.2-16,15.9
		c0,5.2,3.4,13.6,9.3,13.1C19.1,40.4,16.7,36.7,16.2,32.5z"/>
	<path class="st2" d="M27,38l4.4-7.3c0.1-0.3,0.3-0.5,0.3-0.7V19.8c0-0.8-0.7-1.5-1.5-1.5c-0.7,0-1.5,0.7-1.5,1.5v9.8l-4.1,6.9
		c-0.4,0.7-0.3,1.7,0.5,1.9C25.6,38.9,26.4,38.7,27,38z"/>
</g>
</svg>
