<?xml version="1.0" encoding="utf-8"?>
<!-- Generator: Adobe Illustrator 25.2.1, SVG Export Plug-In . SVG Version: 6.00 Build 0)  -->
<svg version="1.1" id="Layer_1" xmlns="http://www.w3.org/2000/svg" xmlns:xlink="http://www.w3.org/1999/xlink" x="0px" y="0px"
	 viewBox="0 0 60 60" style="enable-background:new 0 0 60 60;" xml:space="preserve">
<style type="text/css">
	.st0{fill:url(#SVGID_1_);}
	.st1{opacity:8.000000e-02;fill:#FFFFFF;enable-background:new    ;}
	.st2{fill:#FFFFFF;}
	.st3{opacity:0.1;fill:#FFFFFF;enable-background:new    ;}
</style>
<g id="Shopping_Bag">
</g>
<linearGradient id="SVGID_1_" gradientUnits="userSpaceOnUse" x1="60.6026" y1="3.4376" x2="-6.4966" y2="66.0635" gradientTransform="matrix(1 0 0 -1 0 62)">
	<stop  offset="0" style="stop-color:#030305"/>
	<stop  offset="0.5" style="stop-color:#343334"/>
	<stop  offset="1" style="stop-color:#343334"/>
</linearGradient>
<circle class="st0" cx="30" cy="30" r="20"/>
<path class="st1" d="M11.4,31.4c0-11,9-20,20-20c5.4,0,10.2,2.1,13.9,5.6c-3.6-4.3-9.2-7-15.2-7C19,10,10,19,10,30
	c0,5.7,2.3,10.8,6.1,14.4C13.2,40.9,11.4,36.4,11.4,31.4z"/>
<g>
	<path class="st2" d="M30,42.6c-7,0-12.6-5.7-12.6-12.6S23,17.4,30,17.4S42.6,23,42.6,30S37,42.6,30,42.6z M30,19.4
		c-5.8,0-10.6,4.7-10.6,10.6S24.2,40.6,30,40.6S40.6,35.8,40.6,30S35.8,19.4,30,19.4z"/>
	<path class="st3" d="M20,31.8c0-6.4,5.2-11.6,11.6-11.6c2.6,0.2,5.1,1.4,6.7,3.5c-1.6-3.4-5.1-5.6-8.9-5.6
		c-6.4,0-11.6,5.2-11.6,11.6c0,3.8,2.5,9.9,6.8,9.5C22.1,37.6,20.3,34.9,20,31.8z"/>
	<path class="st2" d="M27.8,35.8l3.2-5.3c0.1-0.2,0.2-0.4,0.2-0.5v-7.4c0-0.6-0.5-1.1-1.1-1.1c-0.5,0-1.1,0.5-1.1,1.1v7.1l-3,5
		c-0.3,0.5-0.2,1.2,0.4,1.4C26.8,36.5,27.4,36.3,27.8,35.8z"/>
</g>
</svg>
