<?xml version="1.0" encoding="utf-8"?>
<!-- Generator: Adobe Illustrator 25.2.1, SVG Export Plug-In . SVG Version: 6.00 Build 0)  -->
<svg version="1.1" id="Layer_1" xmlns="http://www.w3.org/2000/svg" xmlns:xlink="http://www.w3.org/1999/xlink" x="0px" y="0px"
	 viewBox="0 0 60 60" style="enable-background:new 0 0 60 60;" xml:space="preserve">
<style type="text/css">
	.st0{fill:url(#SVGID_1_);}
	.st1{opacity:8.000000e-02;fill:#FFFFFF;enable-background:new    ;}
	.st2{fill:#FFFFFF;}
	.st3{opacity:0.27;fill:#FFFFFF;}
</style>
<g id="Shopping_Bag">
</g>
<linearGradient id="SVGID_1_" gradientUnits="userSpaceOnUse" x1="72.0785" y1="-9.2733" x2="-20.1828" y2="76.8373" gradientTransform="matrix(1 0 0 -1 0 60)">
	<stop  offset="0" style="stop-color:#030305"/>
	<stop  offset="0.5" style="stop-color:#343334"/>
	<stop  offset="1" style="stop-color:#343334"/>
</linearGradient>
<circle class="st0" cx="30" cy="30" r="27.5"/>
<path class="st1" d="M4.4,32c0-15.2,12.3-27.5,27.5-27.5c7.4,0,14.1,2.9,19.1,7.7c-5-5.9-12.6-9.7-20.9-9.7
	C14.8,2.5,2.5,14.8,2.5,30c0,7.8,3.2,14.8,8.4,19.8C6.9,45,4.4,38.8,4.4,32z"/>
<g>
	<path class="st2" d="M30,47.4c-9.6,0-17.4-7.8-17.4-17.4S20.4,12.6,30,12.6S47.4,20.4,47.4,30S39.6,47.4,30,47.4z M30,15.5
		c-8,0-14.5,6.5-14.5,14.5S22,44.5,30,44.5S44.5,38,44.5,30S38,15.5,30,15.5z"/>
	<path class="st3" d="M16.3,32.4c0-8.8,7.2-16,16-16c3.6,0.2,7,2,9.2,4.8c-2.2-4.7-7-7.7-12.2-7.7c-8.8,0-16,7.2-16,16
		c0,5.2,3.4,13.6,9.4,13.1C19.1,40.4,16.7,36.7,16.3,32.4z"/>
	<path class="st2" d="M26.9,38l4.4-7.3c0.1-0.2,0.2-0.5,0.2-0.7V19.8c0-0.8-0.7-1.5-1.5-1.5c-0.8,0-1.5,0.7-1.5,1.5v9.8l-4.2,6.9
		c-0.4,0.7-0.2,1.6,0.5,2C25.6,38.9,26.5,38.7,26.9,38z"/>
</g>
</svg>
