<?xml version="1.0" ?><!DOCTYPE svg  PUBLIC '-//W3C//DTD SVG 1.1//EN'  'http://www.w3.org/Graphics/SVG/1.1/DTD/svg11.dtd'><svg enable-background="new 0 0 64 64" version="1.1" viewBox="0 0 64 64" xml:space="preserve" xmlns="http://www.w3.org/2000/svg" xmlns:xlink="http://www.w3.org/1999/xlink"><g id="Home"/><g id="Camera"/><g id="Mail"><g><path d="M62,18v28c0,3.3-2.7,6-6,6H8c-3.3,0-6-2.7-6-6V18c0-0.7,0.1-1.5,0.4-2.2c0-0.1,0-0.1,0.1-0.2    s0.1-0.1,0.1-0.2C3.6,13.3,5.7,12,8,12h48c2.3,0,4.4,1.3,5.4,3.4c0,0.1,0.1,0.1,0.1,0.2s0.1,0.1,0.1,0.2C61.9,16.5,62,17.3,62,18z    " fill="#FE5723"/></g><g><path d="M60.7,18.2L33,33.7c-0.3,0.2-0.6,0.3-1,0.3s-0.7-0.1-1-0.3L3.3,18.2c-0.9-0.5-1.3-1.6-0.9-2.5    C3.4,13.4,5.6,12,8,12h48c2.4,0,4.6,1.4,5.5,3.7C61.9,16.6,61.5,17.7,60.7,18.2z" fill="#FE9803"/></g></g><g id="Print"/><g id="Save"/><g id="Folder"/><g id="Search"/><g id="User"/><g id="Pin"/><g id="Calendar"/><g id="Gallery"/><g id="time"/><g id="Pin_1_"/><g id="Setting"/><g id="Player"/><g id="Lock"/><g id="Trash_Can"/><g id="Notification"/><g id="Record"/><g id="Shopping_Bag"/></svg>