<?xml version="1.0" encoding="utf-8"?>
<!-- Generator: Adobe Illustrator 25.2.1, SVG Export Plug-In . SVG Version: 6.00 Build 0)  -->
<svg version="1.1" id="Layer_1" xmlns="http://www.w3.org/2000/svg" xmlns:xlink="http://www.w3.org/1999/xlink" x="0px" y="0px"
	 viewBox="0 0 60 60" style="enable-background:new 0 0 60 60;" xml:space="preserve">
<style type="text/css">
	.st0{fill:#1589CA;}
	.st1{fill:#FFFFFF;}
</style>
<g id="Layer_1_1_">
	<circle class="st0" cx="30" cy="30" r="29"/>
</g>
<g id="Layer_2_1_">
	<g>
		<rect x="42.5" y="26.9" class="st1" width="2.5" height="6"/>
		<path class="st1" d="M50.5,34.9H39c-0.8,0-1.4,0.6-1.4,1.4v1.5c0,0.8,0.6,1.4,1.4,1.4h3.5v0.7c0,2.7-2.2,4.9-4.9,4.9h-0.4
			c-1.7,0-3-1.3-3-3V18.1c0-1.7,1.3-3,3-3h0.4c2.7,0,4.9,2.2,4.9,4.9v0.8h-3.7c-0.8,0-1.4,0.6-1.4,1.4v1.5c0,0.8,0.6,1.4,1.4,1.4
			h11.5c0.8,0,1.4-0.6,1.4-1.4v-1.5c0-0.8-0.6-1.4-1.4-1.4H45v-1.4c0-3.8-3.1-6.9-6.9-6.9H34c-2.7,0-5,2.2-5,5v0.2h-9.3
			c-0.3,0-0.6,0.1-0.8,0.3c-0.8,0.7-2.9,2.6-3.6,3.5c-0.7,0.9-1.8,2.7-2.2,3.8l-3.9,1.1C8.5,26.6,8,27.2,8,27.9H5.3
			c-0.7,0-1.3,0.6-1.3,1.3v1.6c0,0.7,0.6,1.3,1.3,1.3H8c0,0.7,0.5,1.4,1.2,1.6l3.9,1.1c0.4,1.1,1.5,2.9,2.1,3.7
			c0.7,0.9,2.8,2.8,3.6,3.6c0.2,0.2,0.5,0.3,0.8,0.3h9.3v0.2c0,2.7,2.2,5,5,5H38c3.8,0,6.9-3.1,6.9-6.9v-1.4h5.5
			c0.8,0,1.4-0.6,1.4-1.4v-1.5C51.9,35.5,51.3,34.9,50.5,34.9z"/>
	</g>
</g>
</svg>
