<?xml version="1.0" encoding="utf-8"?>
<!-- Generator: Adobe Illustrator 25.2.1, SVG Export Plug-In . SVG Version: 6.00 Build 0)  -->
<svg version="1.1" id="Layer_1" xmlns="http://www.w3.org/2000/svg" xmlns:xlink="http://www.w3.org/1999/xlink" x="0px" y="0px"
	 viewBox="0 0 60 60" style="enable-background:new 0 0 60 60;" xml:space="preserve">
<style type="text/css">
	.st0{fill:#1589CA;}
	.st1{fill:#FFFFFF;}
</style>
<circle class="st0" cx="30" cy="30" r="29"/>
<path class="st1" d="M52.2,27.9h-2.7c0,0,0,0,0,0c0-0.7-0.5-1.4-1.2-1.6l-3.9-1.1c-0.4-1.2-1.6-3-2.2-3.8c-0.7-0.9-2.8-2.7-3.6-3.5
	c-0.2-0.2-0.5-0.3-0.8-0.3h-9.3v-0.2c0-2.7-2.2-5-5-5h-4.1c-3.8,0-6.9,3.1-6.9,6.9v21.2c0,3.8,3.1,6.9,6.9,6.9h4.1c2.7,0,5-2.2,5-5
	v-0.2h9.3c0.3,0,0.6-0.1,0.8-0.3c0.8-0.7,3-2.7,3.6-3.6c0.6-0.8,1.7-2.6,2.1-3.7l3.9-1.1c0.7-0.2,1.2-0.8,1.2-1.6c0,0,0,0,0,0h2.7
	c0.7,0,1.3-0.6,1.3-1.3v-1.6C53.5,28.5,52.9,27.9,52.2,27.9z M20.4,44.8H20c-2.7,0-4.9-2.2-4.9-4.9V20c0-2.7,2.2-4.9,4.9-4.9h0.4
	c1.1,0,2,0.6,2.6,1.4c-0.1,0-0.3,0-0.4,0h-0.4c-2.6,0-4.6,1.4-4.6,3.8v19.4c0,2.5,2.1,3.8,4.6,3.8h0.4c0.1,0,0.2,0,0.4,0
	C22.3,44.3,21.4,44.8,20.4,44.8z M23.4,39.9h-2.7c-1.2,0-2.2-1-2.2-2.2v-1.5c0-1.2,1-2.2,2.2-2.2h2.7V39.9z M23.4,25.8h-2.6
	c-1.2,0-2.2-1-2.2-2.2v-1.5c0-1.2,1-2.2,2.2-2.2h2.6V25.8z"/>
</svg>
