<?xml version="1.0" encoding="utf-8"?>
<!-- Generator: Adobe Illustrator 25.2.1, SVG Export Plug-In . SVG Version: 6.00 Build 0)  -->
<svg version="1.1" id="Layer_1" xmlns="http://www.w3.org/2000/svg" xmlns:xlink="http://www.w3.org/1999/xlink" x="0px" y="0px"
	 viewBox="0 0 118.4 104.2" style="enable-background:new 0 0 118.4 104.2;" xml:space="preserve">
<style type="text/css">
	.st0{opacity:0.35;}
	.st1{fill:#35449C;}
	.st2{fill-rule:evenodd;clip-rule:evenodd;fill:#BC2461;}
	.st3{fill:#0089CF;}
	.st4{fill:#FFFFFF;}
</style>
<g>
	<g>
		<g class="st0">
			<g>
				<polygon class="st1" points="101.8,27 99.9,27 99.9,11.4 84.3,11.4 84.3,9.5 101.8,9.5 				"/>
			</g>
			<g>
				<polygon class="st1" points="18.5,27 16.6,27 16.6,9.5 34.1,9.5 34.1,11.4 18.5,11.4 				"/>
			</g>
			<g>
				<polygon class="st1" points="34.1,94.7 16.6,94.7 16.6,77.2 18.5,77.2 18.5,92.8 34.1,92.8 				"/>
			</g>
			<g>
				<polygon class="st1" points="101.8,94.7 84.3,94.7 84.3,92.8 99.9,92.8 99.9,77.2 101.8,77.2 				"/>
			</g>
		</g>
		<rect x="93.8" y="9.5" class="st2" width="8" height="8"/>
		<rect x="93.8" y="86.7" class="st2" width="8" height="8"/>
		<rect x="16.6" y="86.7" class="st2" width="8" height="8"/>
		<rect x="16.6" y="9.5" class="st2" width="8" height="8"/>
	</g>
	<g>
		<circle class="st3" cx="110.5" cy="52.1" r="5.9"/>
		<path class="st4" d="M116,51.8l-1.6-0.9l-2.1-1.2v1.7h-3.7v-4.4c-0.5,0.2-1,0.5-1.5,0.9v8.6c0.4,0.4,0.9,0.6,1.5,0.9v-4.4h3.7v1.7
			l2.1-1.2l1.6-0.9c0-0.1,0-0.2,0-0.3C116,52,116,51.9,116,51.8z"/>
	</g>
	<g>
		<ellipse class="st3" cx="7.9" cy="52.1" rx="5.9" ry="6.2"/>
		<path class="st4" d="M11.4,56.6v-9c-0.4-0.4-0.9-0.7-1.5-0.9v4.9l-1.4-0.8l-2.1-1.3v1.8H2.5c0,0.3-0.1,0.5-0.1,0.8
			c0,0.3,0,0.5,0.1,0.8h3.9v1.8l2.1-1.3l1.4-0.8v4.9C10.4,57.3,10.9,57,11.4,56.6z"/>
	</g>
</g>
</svg>
