<?xml version="1.0" encoding="utf-8"?>
<!-- Generator: Adobe Illustrator 25.2.1, SVG Export Plug-In . SVG Version: 6.00 Build 0)  -->
<svg version="1.1" id="Layer_1" xmlns="http://www.w3.org/2000/svg" xmlns:xlink="http://www.w3.org/1999/xlink" x="0px" y="0px"
	 viewBox="0 0 60 60" style="enable-background:new 0 0 60 60;" xml:space="preserve">
<style type="text/css">
	.st0{fill:#717F7D;}
</style>
<g id="Shopping_Bag">
</g>
<g id="Layer_2_2_">
	<g>
		<path class="st0" d="M47.8,6.5H12.2C9,6.5,6.5,9,6.5,12.2v35.6c0,3.1,2.5,5.7,5.7,5.7h35.6c3.1,0,5.7-2.5,5.7-5.7V12.2
			C53.5,9,51,6.5,47.8,6.5z M42.7,32.1H32.1v10.6c0,1.1-0.9,2.1-2.1,2.1s-2.1-0.9-2.1-2.1V32.1H17.3c-1.1,0-2.1-0.9-2.1-2.1
			c0-1.1,0.9-2.1,2.1-2.1h10.6V17.3c0-1.1,0.9-2.1,2.1-2.1s2.1,0.9,2.1,2.1v10.6h10.6c1.1,0,2.1,0.9,2.1,2.1
			C44.7,31.1,43.8,32.1,42.7,32.1z"/>
	</g>
</g>
</svg>
