<?xml version="1.0" encoding="utf-8"?>
<!-- Generator: Adobe Illustrator 25.2.1, SVG Export Plug-In . SVG Version: 6.00 Build 0)  -->
<svg version="1.1" id="Layer_1" xmlns="http://www.w3.org/2000/svg" xmlns:xlink="http://www.w3.org/1999/xlink" x="0px" y="0px"
	 viewBox="0 0 60 60" style="enable-background:new 0 0 60 60;" xml:space="preserve">
<style type="text/css">
	.st0{fill:#FFFFFF;}
	.st1{fill:#717F7D;}
</style>
<g id="Shopping_Bag">
</g>
<path class="st0" d="M42.1,31.2H16c-0.5,0-0.9-0.4-0.9-0.9v-1.6c0-0.5,0.4-0.9,0.9-0.9h26.1c0.5,0,0.9,0.4,0.9,0.9v1.6
	C43,30.8,42.6,31.2,42.1,31.2z"/>
<path class="st0" d="M42.1,38.7H16c-0.5,0-0.9-0.4-0.9-0.9v-1.6c0-0.5,0.4-0.9,0.9-0.9h26.1c0.5,0,0.9,0.4,0.9,0.9v1.6
	C43,38.3,42.6,38.7,42.1,38.7z"/>
<path class="st0" d="M34,46.2H16c-0.5,0-0.9-0.4-0.9-0.9v-1.6c0-0.5,0.4-0.9,0.9-0.9h18c0.5,0,0.9,0.4,0.9,0.9v1.6
	C34.9,45.8,34.5,46.2,34,46.2z"/>
<path class="st0" d="M25.5,20.4H16c-0.5,0-0.9-0.4-0.9-0.9v-1.6c0-0.5,0.4-0.9,0.9-0.9h9.5c0.5,0,0.9,0.4,0.9,0.9v1.6
	C26.4,20,26,20.4,25.5,20.4z"/>
<g id="Layer_2_2_">
	<g>
		<g>
			<path class="st1" d="M44.6,13.9h-7c-0.1-4.1-3.5-7.4-7.6-7.4s-7.5,3.3-7.6,7.4h-7c-2.7,0-4.9,2.2-4.9,4.9v0.1
				c0,2.7,2.2,4.9,4.9,4.9h29.3c2.7,0,4.9-2.2,4.9-4.9v-0.1C49.5,16.1,47.3,13.9,44.6,13.9z M30,10c2.2,0,4,1.8,4.1,3.9h-8.2
				C26,11.7,27.8,10,30,10z"/>
		</g>
		<g>
			<path class="st1" d="M15.4,27.3c-0.2,0-0.3,0-0.5,0v20.3c0,3.3,2.7,5.9,5.9,5.9h18.4c3.3,0,5.9-2.7,5.9-5.9V27.3
				c-0.2,0-0.3,0-0.5,0H15.4L15.4,27.3z M27.2,47c0,1-0.8,1.7-1.7,1.7c-1,0-1.7-0.8-1.7-1.7V34.2c0-1,0.8-1.7,1.7-1.7
				c1,0,1.7,0.8,1.7,1.7V47z M36.3,47c0,1-0.8,1.7-1.7,1.7c-1,0-1.7-0.8-1.7-1.7V34.2c0-1,0.8-1.7,1.7-1.7c1,0,1.7,0.8,1.7,1.7V47z"
				/>
		</g>
	</g>
</g>
</svg>
