<?xml version="1.0" encoding="utf-8"?>
<!-- Generator: Adobe Illustrator 25.2.1, SVG Export Plug-In . SVG Version: 6.00 Build 0)  -->
<svg version="1.1" id="Layer_1" xmlns="http://www.w3.org/2000/svg" xmlns:xlink="http://www.w3.org/1999/xlink" x="0px" y="0px"
	 viewBox="0 0 60 60" style="enable-background:new 0 0 60 60;" xml:space="preserve">
<style type="text/css">
	.st0{fill:#717F7D;}
</style>
<g id="Shopping_Bag">
</g>
<g>
	<path class="st0" d="M30,6.5C17,6.5,6.5,17,6.5,30S17,53.5,30,53.5S53.5,43,53.5,30S43,6.5,30,6.5z M32.1,40.8
		c-0.1,1.9-1.4,3-3.2,3c-1.7-0.1-3.1-1.3-3-3.2s1.5-3.1,3.2-3C30.9,37.6,32.2,38.9,32.1,40.8z M37.2,27.4c-0.4,0.6-1.4,1.4-2.7,2.4
		l-1.4,0.9c-0.7,0.5-1.1,1.1-1.3,1.8c-0.1,0.4-0.2,1.3-0.2,2c0,0.1-0.1,0.4-0.5,0.4s-3.7,0-4.1,0s-0.5-0.3-0.5-0.4
		c0.1-1.7,0.3-3.2,1-4.3c1-1.6,3.7-3.2,3.7-3.2c0.4-0.3,0.7-0.7,1-1c0.5-0.6,0.8-1.3,0.8-2.1c0-0.9-0.2-1.7-0.8-2.4
		c-0.7-0.8-1.4-1.2-2.7-1.2c-1.3,0-2.1,0.7-2.7,1.6s-0.5,1.9-0.5,2.9h-5.1c0-3.6,0.9-5.8,2.9-7.2c1.3-0.9,3-1.3,5-1.3
		c2.6,0,4.7,0.5,6.5,1.9c1.7,1.3,2.6,3.1,2.6,5.5C38.5,25.1,38,26.4,37.2,27.4z"/>
</g>
</svg>
