<?xml version="1.0" encoding="utf-8"?>
<!-- Generator: Adobe Illustrator 25.2.1, SVG Export Plug-In . SVG Version: 6.00 Build 0)  -->
<svg version="1.1" id="Layer_1" xmlns="http://www.w3.org/2000/svg" xmlns:xlink="http://www.w3.org/1999/xlink" x="0px" y="0px"
	 viewBox="0 0 60 60" style="enable-background:new 0 0 60 60;" xml:space="preserve">
<style type="text/css">
	.st0{fill:#333333;}
</style>
<g id="Shopping_Bag">
</g>
<g>
	<ellipse transform="matrix(0.7071 -0.7071 0.7071 0.7071 -8.0737 22.0141)" class="st0" cx="22.5" cy="20.8" rx="5.4" ry="5.4"/>
	<path class="st0" d="M42.9,23.8c-0.7-0.7-1.7-1.1-2.8-1c-1,0.1-2,0.6-2.6,1.4L26.3,39.7l-3.4-4.5c-0.6-0.9-1.7-1.4-2.7-1.4
		c-1.1,0-2.1,0.5-2.8,1.3l-10.9,13c0.4,1.5,1.8,2.5,3.3,2.5h8.5h0.2H50c1.9,0,3.5-1.6,3.5-3.5V34.5L42.9,23.8z"/>
</g>
</svg>
