<?xml version="1.0" encoding="utf-8"?>
<!-- Generator: Adobe Illustrator 25.2.1, SVG Export Plug-In . SVG Version: 6.00 Build 0)  -->
<svg version="1.1" id="Layer_1" xmlns="http://www.w3.org/2000/svg" xmlns:xlink="http://www.w3.org/1999/xlink" x="0px" y="0px"
	 viewBox="0 0 60 60" style="enable-background:new 0 0 60 60;" xml:space="preserve">
<style type="text/css">
	.st0{fill:#333333;}
</style>
<g id="Shopping_Bag">
</g>
<path class="st0" d="M48.8,10.9c-2.6,0-4.7,2.1-4.7,4.7c0,0.8,0.2,1.6,0.6,2.3L32.6,37.1c-0.2,0-0.4-0.1-0.7-0.1
	c-2.1,0-3.9,1.4-4.5,3.3L15,41.7c-0.8-1.2-2.2-2-3.8-2c-2.6,0-4.7,2.1-4.7,4.7s2.1,4.7,4.7,4.7c2,0,3.6-1.2,4.3-2.9l12.8-1.4
	c0.9,1,2.1,1.6,3.5,1.6c2.6,0,4.7-2.1,4.7-4.7c0-0.7-0.2-1.3-0.4-1.9l12.3-19.6c0.1,0,0.2,0,0.3,0c2.6,0,4.7-2.1,4.7-4.7
	S51.4,10.9,48.8,10.9z"/>
</svg>
