<?xml version="1.0" encoding="utf-8"?>
<!-- Generator: Adobe Illustrator 25.2.1, SVG Export Plug-In . SVG Version: 6.00 Build 0)  -->
<svg version="1.1" id="Layer_1" xmlns="http://www.w3.org/2000/svg" xmlns:xlink="http://www.w3.org/1999/xlink" x="0px" y="0px"
	 viewBox="0 0 60 60" style="enable-background:new 0 0 60 60;" xml:space="preserve">
<style type="text/css">
	.st0{fill:#333333;}
	.st1{fill:#FFFFFF;}
</style>
<g id="Shopping_Bag">
</g>
<path class="st0" d="M32.3,22.9h13L32.3,10C32.3,10,32.3,22.9,32.3,22.9z M34.7,6.5l14.1,14.1v28.2c0,2.5-2.2,4.6-4.7,4.6H15.9
	c-2.5,0-4.7-2.1-4.7-4.6l0.1-37.7c0-2.5,2.1-4.6,4.6-4.6C15.9,6.5,34.7,6.5,34.7,6.5z"/>
<path class="st1" d="M42.1,31.2H16c-0.5,0-0.9-0.4-0.9-0.9v-1.6c0-0.5,0.4-0.9,0.9-0.9h26.1c0.5,0,0.9,0.4,0.9,0.9v1.6
	C43,30.8,42.6,31.2,42.1,31.2z"/>
<path class="st1" d="M42.1,38.7H16c-0.5,0-0.9-0.4-0.9-0.9v-1.6c0-0.5,0.4-0.9,0.9-0.9h26.1c0.5,0,0.9,0.4,0.9,0.9v1.6
	C43,38.3,42.6,38.7,42.1,38.7z"/>
<path class="st1" d="M34,46.2H16c-0.5,0-0.9-0.4-0.9-0.9v-1.6c0-0.5,0.4-0.9,0.9-0.9H34c0.5,0,0.9,0.4,0.9,0.9v1.6
	C34.9,45.8,34.5,46.2,34,46.2z"/>
<path class="st1" d="M25.5,20.4H16c-0.5,0-0.9-0.4-0.9-0.9v-1.6c0-0.5,0.4-0.9,0.9-0.9h9.5c0.5,0,0.9,0.4,0.9,0.9v1.6
	C26.4,20,26,20.4,25.5,20.4z"/>
</svg>
