<?xml version="1.0" encoding="utf-8"?>
<!-- Generator: Adobe Illustrator 25.2.1, SVG Export Plug-In . SVG Version: 6.00 Build 0)  -->
<svg version="1.1" id="Layer_1" xmlns="http://www.w3.org/2000/svg" xmlns:xlink="http://www.w3.org/1999/xlink" x="0px" y="0px"
	 viewBox="0 0 60 60" style="enable-background:new 0 0 60 60;" xml:space="preserve">
<style type="text/css">
	.st0{fill:#717F7D;}
</style>
<g id="Shopping_Bag">
</g>
<path class="st0" d="M34.7,6.5H15.9c-2.5,0-4.6,2.1-4.6,4.6l-0.1,37.7c0,2.5,2.2,4.6,4.7,4.6h28.2c2.5,0,4.7-2.1,4.7-4.6V20.6
	L34.7,6.5z M15.1,17.9c0-0.5,0.4-0.9,0.9-0.9h9.5c0.5,0,0.9,0.4,0.9,0.9v1.6c0,0.5-0.4,0.9-0.9,0.9H16c-0.5,0-0.9-0.4-0.9-0.9V17.9z
	 M34.9,45.3c0,0.5-0.4,0.9-0.9,0.9H16c-0.5,0-0.9-0.4-0.9-0.9v-1.6c0-0.5,0.4-0.9,0.9-0.9h18c0.5,0,0.9,0.4,0.9,0.9V45.3z M43,37.8
	c0,0.5-0.4,0.9-0.9,0.9H16c-0.5,0-0.9-0.4-0.9-0.9v-1.6c0-0.5,0.4-0.9,0.9-0.9h26.1c0.5,0,0.9,0.4,0.9,0.9V37.8z M43,30.3
	c0,0.5-0.4,0.9-0.9,0.9H16c-0.5,0-0.9-0.4-0.9-0.9v-1.6c0-0.5,0.4-0.9,0.9-0.9h26.1c0.5,0,0.9,0.4,0.9,0.9V30.3z M32.3,22.9V10
	l13,12.9H32.3z"/>
</svg>
