<?xml version="1.0" encoding="utf-8"?>
<!-- Generator: Adobe Illustrator 25.2.1, SVG Export Plug-In . SVG Version: 6.00 Build 0)  -->
<svg version="1.1" id="Layer_1" xmlns="http://www.w3.org/2000/svg" xmlns:xlink="http://www.w3.org/1999/xlink" x="0px" y="0px"
	 viewBox="0 0 60 60" style="enable-background:new 0 0 60 60;" xml:space="preserve">
<style type="text/css">
	.st0{fill:#333333;}
</style>
<g id="Shopping_Bag">
</g>
<g id="Layer_2_1_">
	<g>
		<g>
			<path class="st0" d="M8.5,53.5h43.1c1.1,0,2-0.9,2-2v-4.7c0-1.1-0.9-2-2-2H8.5c-1.1,0-2,0.9-2,2v4.7C6.5,52.6,7.4,53.5,8.5,53.5z
				"/>
		</g>
		<g>
			<path class="st0" d="M38.3,6.5H32c-1.1,0-2,0.9-2,2v14.1c0,1.1-0.9,2-2,2h-9.3c-1.1,0-2-0.9-2-2V8.5c0-1.1-0.9-2-2-2H8.5
				c-1.1,0-2,0.9-2,2v24.9c0,1.1,0.9,2,2,2h43.1c1.1,0,2-0.9,2-2V21.3c0-0.5-0.2-1-0.6-1.4L39.7,7.1C39.3,6.7,38.8,6.5,38.3,6.5z"/>
		</g>
	</g>
</g>
</svg>
