<?xml version="1.0" encoding="utf-8"?>
<!-- Generator: Adobe Illustrator 25.2.1, SVG Export Plug-In . SVG Version: 6.00 Build 0)  -->
<svg version="1.1" id="Layer_1" xmlns="http://www.w3.org/2000/svg" xmlns:xlink="http://www.w3.org/1999/xlink" x="0px" y="0px"
	 viewBox="0 0 60 60" style="enable-background:new 0 0 60 60;" xml:space="preserve">
<style type="text/css">
	.st0{fill:#333333;}
</style>
<g id="Shopping_Bag">
</g>
<path id="XMLID_223_" class="st0" d="M52.4,46.8l-9.9-9.9c2.1-3.1,3.3-6.8,3.3-10.8c0-10.8-8.8-19.6-19.6-19.6S6.5,15.3,6.5,26.1
	s8.8,19.6,19.6,19.6c4,0,7.7-1.2,10.8-3.3l9.9,9.9c1.5,1.5,4,1.5,5.5,0C53.9,50.8,53.9,48.3,52.4,46.8z M12.4,26.1
	c0-7.6,6.1-13.7,13.7-13.7s13.7,6.1,13.7,13.7s-6.1,13.7-13.7,13.7S12.4,33.6,12.4,26.1z"/>
</svg>
