<?xml version="1.0" encoding="utf-8"?>
<!-- Generator: Adobe Illustrator 25.2.1, SVG Export Plug-In . SVG Version: 6.00 Build 0)  -->
<svg version="1.1" id="Layer_1" xmlns="http://www.w3.org/2000/svg" xmlns:xlink="http://www.w3.org/1999/xlink" x="0px" y="0px"
	 viewBox="0 0 60 60" style="enable-background:new 0 0 60 60;" xml:space="preserve">
<style type="text/css">
	.st0{fill:#333333;}
</style>
<g id="Shopping_Bag">
</g>
<g id="Layer_2_1_">
	<g>
		<path class="st0" d="M53.5,33v-6l-5.8-1.1c-0.5-2-1.2-3.9-2.3-5.5l3.3-4.8l-4.3-4.3l-4.8,3.3c-1.7-1.1-3.6-1.8-5.5-2.3L33,6.5h-6
			l-1.1,5.8c-2,0.5-3.9,1.2-5.5,2.3l-4.8-3.3l-4.3,4.3l3.3,4.8c-1.1,1.7-1.8,3.6-2.3,5.5L6.5,27v6l5.8,1.1c0.5,2,1.2,3.9,2.3,5.5
			l-3.3,4.8l4.3,4.3l4.8-3.3c1.7,1.1,3.6,1.8,5.5,2.3l1.1,5.8h6l1.1-5.8c2-0.5,3.9-1.2,5.5-2.3l4.8,3.3l4.3-4.3l-3.3-4.8
			c1.1-1.7,1.8-3.6,2.3-5.5L53.5,33z M30,40.1c-5.6,0-10.1-4.5-10.1-10.1S24.4,19.9,30,19.9S40.1,24.4,40.1,30S35.6,40.1,30,40.1z"
			/>
	</g>
</g>
</svg>
