<?xml version="1.0" encoding="utf-8"?>
<!-- Generator: Adobe Illustrator 25.2.1, SVG Export Plug-In . SVG Version: 6.00 Build 0)  -->
<svg version="1.1" id="Layer_1" xmlns="http://www.w3.org/2000/svg" xmlns:xlink="http://www.w3.org/1999/xlink" x="0px" y="0px"
	 viewBox="0 0 60 60" style="enable-background:new 0 0 60 60;" xml:space="preserve">
<style type="text/css">
	.st0{fill:#717F7D;}
</style>
<g id="Shopping_Bag">
</g>
<g id="Layer_2_2_">
	<g>
		<path class="st0" d="M50.2,6.5H9.8C8,6.5,6.5,8,6.5,9.8v40.3c0,1.8,1.5,3.3,3.3,3.3h40.3c1.8,0,3.3-1.5,3.3-3.3V9.8
			C53.5,8,52,6.5,50.2,6.5z M46,21.2c0,1-0.8,1.9-1.9,1.9h-8c-1,0-1.9,0.8-1.9,1.9v19.6c0,1-0.8,1.9-1.9,1.9H27
			c-1,0-1.9-0.8-1.9-1.9V24.9c0-1-0.8-1.9-1.9-1.9h-8c-1,0-1.9-0.8-1.9-1.9v-5.3c0-1,0.8-1.9,1.9-1.9h28.7c1,0,1.9,0.8,1.9,1.9
			L46,21.2L46,21.2z"/>
	</g>
</g>
</svg>
